<svg width="65" height="64" viewBox="0 0 65 64" fill="none" xmlns="http://www.w3.org/2000/svg">
<path d="M0.0284424 0H64.0284V64H0.0284424V0Z" fill="#F7DF1E"/>
<path d="M16.8564 53.483L21.7539 50.519C22.6989 52.1943 23.5584 53.6118 25.6202 53.6118C27.5964 53.6118 28.8427 52.8388 28.8427 49.8318V29.3823H34.8569V49.9168C34.8569 56.146 31.2054 58.9815 25.8779 58.9815C21.0667 58.9815 18.2742 56.4903 16.8564 53.483ZM38.1237 52.8385L43.0207 50.0033C44.3099 52.1085 45.9855 53.655 48.9494 53.655C51.4417 53.655 53.0307 52.409 53.0307 50.6905C53.0307 48.6285 51.3982 47.898 48.6487 46.6955L47.1454 46.0505C42.8062 44.2038 39.9279 41.8838 39.9279 36.9863C39.9279 32.4753 43.3647 29.0383 48.7349 29.0383C52.5584 29.0383 55.3079 30.3703 57.2839 33.85L52.6009 36.8575C51.5697 35.0103 50.4532 34.28 48.7347 34.28C46.9732 34.28 45.8562 35.397 45.8562 36.8575C45.8562 38.6618 46.9732 39.3925 49.5507 40.5095L51.0542 41.1538C56.1667 43.345 59.0449 45.5788 59.0449 50.6048C59.0449 56.0183 54.7919 58.9823 49.0782 58.9823C43.4934 58.9823 39.8849 56.3185 38.1237 52.8385Z" fill="black"/>
</svg>
