<svg width="223" height="64" viewBox="0 0 223 64" fill="none" xmlns="http://www.w3.org/2000/svg">
<path fill-rule="evenodd" clip-rule="evenodd" d="M85.1043 14.7416V43.5983H95.6198V48.5756H79.5057V14.7416H85.1043ZM115.383 29.0964V26.0532H120.689V48.5756H115.382V45.5299C114.669 46.6579 113.654 47.5444 112.339 48.1883C111.026 48.8322 109.703 49.1541 108.372 49.1541C106.652 49.1541 105.078 48.8397 103.65 48.2122C102.261 47.6114 101.01 46.7314 99.9746 45.6267C98.9514 44.53 98.1427 43.2512 97.5903 41.8566C97.0165 40.4111 96.727 38.8684 96.7377 37.3131C96.7377 35.7349 97.0219 34.2284 97.5903 32.7936C98.139 31.3904 98.948 30.1036 99.9746 29.0008C101.01 27.8959 102.261 27.0155 103.65 26.4141C105.078 25.7853 106.652 25.4709 108.372 25.4709C109.703 25.4709 111.026 25.7941 112.34 26.4392C113.654 27.0831 114.669 27.9697 115.383 29.0964ZM114.895 40.0684C115.222 39.1871 115.387 38.2542 115.383 37.3144C115.383 36.3461 115.22 35.4281 114.895 34.5579C114.59 33.7208 114.128 32.9499 113.533 32.2868C112.938 31.6346 112.218 31.1087 111.416 30.74C110.587 30.3539 109.67 30.1603 108.664 30.1603C107.658 30.1603 106.749 30.3539 105.938 30.74C105.127 31.1273 104.429 31.6429 103.845 32.2868C103.252 32.9467 102.797 33.719 102.507 34.5579C102.196 35.4429 102.039 36.375 102.045 37.3131C102.045 38.2802 102.198 39.1994 102.507 40.0671C102.797 40.9066 103.252 41.6793 103.845 42.3395C104.434 42.9878 105.145 43.5135 105.938 43.8863C106.749 44.2736 107.658 44.466 108.664 44.466C109.67 44.466 110.588 44.2736 111.416 43.8875C112.218 43.5192 112.938 42.9932 113.533 42.3408C114.128 41.6773 114.591 40.906 114.895 40.0684ZM124.875 48.5744V26.0519H139.285V31.2355H130.181V48.5744H124.875ZM158.514 29.0964V26.0532H163.82V48.5756H158.513V45.5299C157.799 46.6579 156.785 47.5444 155.47 48.1883C154.157 48.8322 152.834 49.1541 151.503 49.1541C149.782 49.1541 148.209 48.8397 146.781 48.2122C145.392 47.6114 144.141 46.7314 143.106 45.6267C142.082 44.53 141.274 43.2512 140.721 41.8566C140.147 40.4111 139.858 38.8684 139.869 37.3131C139.869 35.7349 140.152 34.2284 140.721 32.7936C141.27 31.3904 142.079 30.1036 143.106 29.0008C144.141 27.8959 145.392 27.0155 146.781 26.4141C148.209 25.7853 149.782 25.4709 151.503 25.4709C152.834 25.4709 154.157 25.7941 155.471 26.4392C156.785 27.0831 157.799 27.9697 158.514 29.0964ZM158.026 40.0684C158.352 39.187 158.517 38.2542 158.513 37.3144C158.513 36.3461 158.349 35.4281 158.026 34.5579C157.721 33.7207 157.258 32.9498 156.663 32.2868C156.068 31.6346 155.348 31.1087 154.545 30.74C153.718 30.3539 152.801 30.1603 151.795 30.1603C150.789 30.1603 149.88 30.3539 149.069 30.74C148.258 31.1273 147.56 31.6429 146.976 32.2868C146.382 32.9466 145.927 33.7189 145.637 34.5579C145.325 35.4429 145.169 36.375 145.174 37.3131C145.174 38.2802 145.328 39.1994 145.637 40.0671C145.927 40.9067 146.382 41.6794 146.976 42.3395C147.565 42.9878 148.276 43.5135 149.069 43.8863C149.88 44.2736 150.789 44.466 151.795 44.466C152.801 44.466 153.719 44.2736 154.545 43.8875C155.348 43.5192 156.068 42.9932 156.663 42.3408C157.259 41.6774 157.721 40.9061 158.026 40.0684ZM185.092 26.0519H190.467L181.757 48.5744H175.09L166.38 26.0519H171.755L178.423 43.299L185.092 26.0519ZM202.039 25.4735C209.264 25.4735 214.191 31.8303 213.266 39.2711H195.663C195.663 41.214 197.639 44.9703 202.33 44.9703C206.367 44.9703 209.071 41.4454 209.073 41.4429L212.657 44.1969C209.453 47.5947 206.829 49.1553 202.719 49.1553C195.375 49.1553 190.399 44.5427 190.399 37.3144C190.399 30.7752 195.542 25.4735 202.039 25.4735ZM195.677 35.3564H208.393C208.354 34.9226 207.665 29.6573 201.997 29.6573C196.329 29.6573 195.718 34.9226 195.677 35.3564ZM216.722 48.5744V14.7416H222.028V48.5744H216.722ZM63.3577 14.4776C63.3809 14.5628 63.3927 14.6508 63.3929 14.7391V28.4764C63.3927 28.6531 63.3456 28.8266 63.2566 28.9792C63.1676 29.1318 63.0398 29.2582 62.8862 29.3454L51.2741 35.9839V49.1415C51.2736 49.318 51.2265 49.4912 51.1375 49.6436C51.0485 49.7959 50.9208 49.9221 50.7673 50.0092L26.5296 63.866C26.4742 63.8987 26.4126 63.9176 26.3535 63.9389C26.3296 63.9465 26.3082 63.9603 26.2856 63.9666C26.1158 64.0111 25.9373 64.0111 25.7675 63.9666C25.7398 63.959 25.7147 63.944 25.6883 63.9339C25.6317 63.915 25.5751 63.8962 25.5223 63.866L1.2833 50.0117C1.1297 49.9242 1.00202 49.7976 0.913222 49.6448C0.824428 49.4919 0.777693 49.3183 0.777771 49.1415V7.92958C0.777971 7.84123 0.78981 7.75328 0.812982 7.66802C0.820527 7.63783 0.838133 7.61143 0.848193 7.58376C0.868314 7.53094 0.885919 7.47687 0.913585 7.42783C0.932448 7.39513 0.960114 7.36872 0.981492 7.3398C1.01167 7.29956 1.03682 7.2568 1.07203 7.22159C1.10096 7.19267 1.13868 7.17129 1.17138 7.14614C1.20785 7.11847 1.24054 7.08578 1.28204 7.06188L1.2833 7.06063L13.4034 0.132867C13.5568 0.0457822 13.7301 0 13.9064 0C14.0828 0 14.2561 0.0457822 14.4094 0.132867L26.5296 7.06063H26.5321C26.5723 7.08578 26.605 7.11847 26.6427 7.14614C26.6754 7.17129 26.7119 7.19267 26.7408 7.22159C26.776 7.2568 26.8012 7.29956 26.8314 7.33854C26.854 7.36872 26.8817 7.39513 26.9005 7.42783C26.9282 7.47687 26.9458 7.53094 26.9659 7.58376C26.976 7.61143 26.9923 7.63783 27.0011 7.66802C27.0239 7.75334 27.0353 7.84128 27.0351 7.92958V33.6701L37.1356 27.8967V14.7391C37.1354 14.6508 37.1468 14.5629 37.1696 14.4776C37.1784 14.4474 37.1947 14.4222 37.206 14.3933C37.2249 14.3405 37.2425 14.2864 37.2702 14.2374C37.289 14.2047 37.3167 14.1783 37.3393 14.1494C37.3695 14.1091 37.3947 14.0664 37.4299 14.0324C37.4588 14.0035 37.4953 13.9821 37.528 13.9569C37.5657 13.928 37.5984 13.8941 37.6399 13.8714V13.8702L49.76 6.94242C49.9134 6.85486 50.087 6.80881 50.2637 6.80881C50.4403 6.80881 50.6139 6.85486 50.7673 6.94242L62.8862 13.8702C62.9289 13.8953 62.9629 13.928 63.0006 13.9557C63.032 13.9808 63.0698 14.0035 63.0987 14.0311C63.1339 14.0664 63.159 14.1091 63.188 14.1481C63.2106 14.1783 63.2383 14.2047 63.2571 14.2374C63.286 14.2864 63.3024 14.3405 63.3225 14.3933C63.3338 14.4222 63.3502 14.4474 63.3577 14.4776ZM61.3733 27.8967V16.4733L57.1317 18.8978L51.2741 22.2466V33.6701L61.3733 27.8967ZM49.2545 48.5618V37.1308L43.4899 40.3979L27.0351 49.7225V61.2604L49.2545 48.5593V48.5618ZM2.79737 9.66372V48.5618L25.0155 61.2629V49.7263L13.4084 43.2047L13.4059 43.2009L13.4009 43.1997C13.3607 43.177 13.3292 43.1443 13.2928 43.1167C13.2601 43.0915 13.2248 43.0714 13.1959 43.0437L13.1934 43.04C13.1607 43.0085 13.1381 42.9695 13.1104 42.9343C13.0853 42.9016 13.0551 42.8727 13.035 42.8375L13.0337 42.8337C13.0111 42.796 12.9972 42.7507 12.9809 42.708C12.9645 42.6715 12.9432 42.6363 12.9331 42.596C12.9193 42.5483 12.918 42.4967 12.9117 42.4477C12.908 42.4099 12.8966 42.3735 12.8966 42.3345V15.4358L7.04029 12.0883L2.79737 9.66372ZM13.9064 2.15876L3.8122 7.93084L13.9064 13.7004L24.0019 7.92958L13.9064 2.15876ZM19.1579 38.172L25.0155 34.8245V9.66372L20.7751 12.0883L14.9162 15.4371V40.5966L19.1579 38.172ZM50.2643 8.96956L40.1688 14.7391L50.2643 20.51L60.3585 14.7391L50.2643 8.96956ZM49.2545 22.2466L43.3956 18.8978L39.1552 16.4733V27.8967L45.0128 31.2455L49.2545 33.6701V22.2466ZM26.024 47.9884L40.8315 39.5956L48.2334 35.4004L38.1454 29.6334L26.5296 36.2732L15.9436 42.3244L26.024 47.9884Z" fill="#FF2D20"/>
</svg>
