<?xml version="1.0" encoding="UTF-8" standalone="no"?>
<svg
   width="114"
   height="64"
   viewBox="0 0 114 64"
   fill="none"
   version="1.1"
   id="svg931"
   sodipodi:docname="php.svg"
   inkscape:version="1.2.2 (b0a84865, 2022-12-01)"
   xmlns:inkscape="http://www.inkscape.org/namespaces/inkscape"
   xmlns:sodipodi="http://sodipodi.sourceforge.net/DTD/sodipodi-0.dtd"
   xmlns="http://www.w3.org/2000/svg"
   xmlns:svg="http://www.w3.org/2000/svg">
  <sodipodi:namedview
     id="namedview933"
     pagecolor="#ffffff"
     bordercolor="#000000"
     borderopacity="0.25"
     inkscape:showpageshadow="2"
     inkscape:pageopacity="0.0"
     inkscape:pagecheckerboard="0"
     inkscape:deskcolor="#d1d1d1"
     showgrid="false"
     inkscape:zoom="3.6875"
     inkscape:cx="42.576271"
     inkscape:cy="33.355932"
     inkscape:window-width="1766"
     inkscape:window-height="1022"
     inkscape:window-x="0"
     inkscape:window-y="25"
     inkscape:window-maximized="0"
     inkscape:current-layer="svg931" />
  <mask
     id="mask0_6_39"
     style="mask-type:luminance"
     maskUnits="userSpaceOnUse"
     x="2"
     y="3"
     width="110"
     height="58">
    <path
       d="M2.27556 32C2.27556 47.8662 26.7273 60.7286 56.8889 60.7286C87.0505 60.7286 111.502 47.8662 111.502 32C111.502 16.1339 87.0505 3.27127 56.8889 3.27127C26.7273 3.27127 2.27556 16.1339 2.27556 32Z"
       fill="white"
       id="path889" />
  </mask>
  <g
     mask="url(#mask0_6_39)"
     id="g894">
    <path
       d="M2.27556 32C2.27556 47.8662 26.7273 60.7286 56.8889 60.7286C87.0505 60.7286 111.502 47.8662 111.502 32C111.502 16.1339 87.0505 3.27127 56.8889 3.27127C26.7273 3.27127 2.27556 16.1339 2.27556 32Z"
       fill="url(#paint0_radial_6_39)"
       id="path892" />
  </g>
  <mask
     id="mask1_6_39"
     style="mask-type:luminance"
     maskUnits="userSpaceOnUse"
     x="0"
     y="0"
     width="114"
     height="64">
    <path
       d="M0 0H113.778V64H0V0Z"
       fill="white"
       id="path896" />
  </mask>
  <g
     mask="url(#mask1_6_39)"
     id="g901">
    <path
       d="M56.8889 58.5956C85.8724 58.5956 109.369 46.6882 109.369 31.9998C109.369 17.3116 85.8724 5.40408 56.8889 5.40408C27.9054 5.40408 4.4089 17.3116 4.4089 31.9998C4.4089 46.6882 27.9054 58.5956 56.8889 58.5956Z"
       fill="#777BB3"
       id="path899" />
  </g>
  <mask
     id="mask2_6_39"
     style="mask-type:luminance"
     maskUnits="userSpaceOnUse"
     x="0"
     y="0"
     width="114"
     height="64">
    <path
       d="M0 0H113.778V64H0V0Z"
       fill="white"
       id="path903" />
  </mask>
  <g
     mask="url(#mask2_6_39)"
     id="g918"
     inkscape:export-filename="php.webp"
     inkscape:export-xdpi="96"
     inkscape:export-ydpi="96">
    <path
       d="M31.9475 35.2975C34.3307 35.2975 36.1099 34.858 37.2356 33.9916C38.3493 33.1341 39.1185 31.6485 39.5216 29.5762C39.8976 27.6392 39.7543 26.2867 39.0962 25.5568C38.4232 24.8113 36.9682 24.4333 34.7716 24.4333H30.963L28.8516 35.2975H31.9475ZM19.4906 48.6802C19.3138 48.6802 19.1459 48.6012 19.0336 48.4645C18.921 48.328 18.8753 48.1482 18.9091 47.9746L24.5048 19.1843C24.5589 18.906 24.8028 18.7049 25.0865 18.7049H37.1465C40.9368 18.7049 43.7579 19.734 45.5311 21.764C47.3138 23.8047 47.8644 26.6573 47.1673 30.2423C46.8836 31.7028 46.3957 33.0592 45.7172 34.2737C45.0379 35.4895 44.1401 36.6144 43.0484 37.6179C41.7415 38.841 40.2624 39.7279 38.6561 40.2498C37.0752 40.7647 35.045 41.0259 32.6219 41.0259H27.7385L26.344 48.2006C26.2898 48.4791 26.0461 48.6802 25.7624 48.6802H19.4906Z"
       fill="black"
       id="path906" />
    <path
       d="M31.4516 25.0258H34.7717C37.4227 25.0258 38.3436 25.6075 38.6565 25.9542C39.1756 26.5298 39.2736 27.7434 38.94 29.4637C38.565 31.3896 37.8701 32.7552 36.8742 33.522C35.8545 34.307 34.1968 34.7048 31.9476 34.7048H29.5705L31.4516 25.0258ZM37.1466 18.1122H25.0863C24.519 18.1122 24.0313 18.5144 23.9231 19.0712L18.3274 47.8615C18.2599 48.209 18.3511 48.5683 18.5761 48.8415C18.8013 49.1147 19.1367 49.2727 19.4907 49.2727H25.7623C26.3298 49.2727 26.8175 48.8705 26.9257 48.3137L28.2271 41.6184H32.6219C35.1073 41.6184 37.1995 41.3474 38.84 40.8131C40.5271 40.2649 42.0793 39.3355 43.4531 38.0508C44.5893 37.0054 45.5252 35.8321 46.2344 34.563C46.9437 33.2934 47.4533 31.8777 47.749 30.3552C48.4829 26.5815 47.8867 23.5597 45.9774 21.3742C44.0866 19.2097 41.1154 18.1122 37.1466 18.1122ZM28.1327 35.89H31.9476C34.4762 35.89 36.3596 35.4137 37.5971 34.4611C38.8349 33.5082 39.6696 31.9178 40.1034 29.6893C40.5184 27.5496 40.3294 26.0397 39.5363 25.1601C38.7422 24.2805 37.1543 23.8406 34.7717 23.8406H30.4746L28.1327 35.89ZM37.1466 19.2974C40.7746 19.2974 43.4213 20.2495 45.0849 22.1539C46.7484 24.0583 47.2493 26.7165 46.5856 30.1292C46.3124 31.535 45.8504 32.8204 45.1999 33.9848C44.5487 35.15 43.6983 36.2155 42.6474 37.1816C41.3951 38.3536 40.0039 39.1888 38.473 39.6861C36.9421 40.1849 34.9923 40.4332 32.6219 40.4332H27.2499L25.7623 48.0875H19.4907L25.0863 19.2974H37.1466Z"
       fill="white"
       id="path908" />
    <path
       d="M61.5473 41.0259C61.3703 41.0259 61.2026 40.9469 61.0902 40.8102C60.9774 40.6737 60.9317 40.4941 60.9655 40.3203L63.4408 27.5817C63.6762 26.3703 63.6182 25.5007 63.2774 25.1333C63.0688 24.9087 62.4423 24.5321 60.5896 24.5321H56.1053L52.9932 40.5463C52.9391 40.8248 52.6951 41.0259 52.4115 41.0259H46.1892C46.0122 41.0259 45.8445 40.9469 45.7319 40.8102C45.6194 40.6737 45.5737 40.4939 45.6075 40.3203L51.2032 11.53C51.2573 11.2517 51.5012 11.0506 51.7849 11.0506H58.0071C58.1841 11.0506 58.3518 11.1296 58.4644 11.2661C58.577 11.4028 58.6226 11.5823 58.5888 11.7562L57.2385 18.7049H62.0626C65.7377 18.7049 68.2297 19.3528 69.6812 20.6857C71.1607 22.0455 71.6223 24.2198 71.0534 27.1487L68.45 40.5463C68.3958 40.8248 68.1521 41.0259 67.8682 41.0259H61.5473Z"
       fill="black"
       id="path910" />
    <path
       d="M58.0071 10.4579H51.7849C51.2174 10.4579 50.7297 10.8601 50.6214 11.4169L45.0258 40.2072C44.9582 40.5547 45.0495 40.914 45.2747 41.1872C45.4999 41.4604 45.8353 41.6184 46.1892 41.6184H52.4115C52.9788 41.6184 53.4667 41.2162 53.5749 40.6594L56.5938 25.1246H60.5896C62.4391 25.1246 62.8273 25.5196 62.8429 25.5366C62.9551 25.6573 63.1026 26.2163 62.8591 27.4687L60.3838 40.2072C60.3163 40.5547 60.4075 40.914 60.6327 41.1872C60.8579 41.4604 61.1933 41.6184 61.5473 41.6184H67.8683C68.4356 41.6184 68.9235 41.2162 69.0317 40.6594L71.635 27.2619C72.2459 24.117 71.7233 21.7579 70.0822 20.2495C68.5162 18.8113 65.893 18.1122 62.0626 18.1122H57.9571L59.1706 11.8693C59.2379 11.5218 59.1469 11.1623 58.9217 10.8893C58.6965 10.6161 58.3611 10.4579 58.0071 10.4579ZM58.0071 11.6431L56.5195 19.2974H62.0626C65.5504 19.2974 67.9562 19.9062 69.2802 21.1222C70.6043 22.339 71.0009 24.3106 70.4717 27.0359L67.8683 40.4332H61.5473L64.0225 27.6949C64.3042 26.2458 64.2007 25.2573 63.7116 24.7303C63.2223 24.2033 62.1815 23.9394 60.5896 23.9394H55.6166L52.4115 40.4332H46.1892L51.7849 11.6431H58.0071Z"
       fill="white"
       id="path912" />
    <path
       d="M80.8987 35.2975C83.2819 35.2975 85.0611 34.858 86.1868 33.9916C87.3005 33.1343 88.0697 31.6487 88.473 29.5762C88.8489 27.6392 88.7057 26.2867 88.0473 25.5568C87.3744 24.8113 85.9193 24.4333 83.7228 24.4333H79.9142L77.8028 35.2975H80.8987ZM68.442 48.6802C68.2652 48.6802 68.0973 48.6012 67.9849 48.4645C67.8723 48.328 67.8265 48.1482 67.8603 47.9746L73.4559 19.1843C73.5103 18.906 73.754 18.7049 74.0379 18.7049H86.0977C89.8881 18.7049 92.7091 19.734 94.4825 21.764C96.2652 23.8045 96.8155 26.6571 96.1187 30.2423C95.8346 31.7028 95.3469 33.0592 94.6684 34.2737C93.9891 35.4895 93.0913 36.6144 91.9995 37.6179C90.6927 38.841 89.2136 39.7279 87.6073 40.2498C86.0264 40.7647 83.9962 41.0259 81.5731 41.0259H76.6895L75.2955 48.2006C75.2412 48.4791 74.9975 48.6802 74.7136 48.6802H68.442Z"
       fill="black"
       id="path914" />
    <path
       d="M80.4028 25.0258H83.7229C86.3739 25.0258 87.2948 25.6075 87.6077 25.9542C88.127 26.5298 88.225 27.7434 87.8912 29.4635C87.5162 31.3896 86.8211 32.7552 85.8254 33.522C84.8057 34.307 83.1481 34.7048 80.8988 34.7048H78.5219L80.4028 25.0258ZM86.0978 18.1122H74.0377C73.4704 18.1122 72.9827 18.5144 72.8745 19.0712L67.2788 47.8615C67.2113 48.209 67.3025 48.5683 67.5275 48.8415C67.7527 49.1147 68.0881 49.2727 68.4421 49.2727H74.7137C75.281 49.2727 75.7689 48.8705 75.8771 48.3137L77.1783 41.6184H81.5731C84.0585 41.6184 86.1507 41.3474 87.7912 40.8131C89.4783 40.2649 91.0309 39.3353 92.4047 38.0504C93.5409 37.0052 94.4764 35.8321 95.1856 34.563C95.8949 33.2934 96.4045 31.8777 96.7002 30.3552C97.4341 26.5813 96.8379 23.5595 94.9286 21.374C93.0378 19.2097 90.0668 18.1122 86.0978 18.1122ZM77.0841 35.89H80.8988C83.4274 35.89 85.3108 35.4137 86.5483 34.4611C87.7863 33.5082 88.6208 31.9178 89.0546 29.6893C89.4698 27.5496 89.2808 26.0397 88.4875 25.1601C87.6934 24.2805 86.1055 23.8406 83.7229 23.8406H79.4258L77.0841 35.89ZM86.0978 19.2974C89.7258 19.2974 92.3725 20.2495 94.0361 22.1539C95.6998 24.0583 96.2005 26.7165 95.5368 30.1292C95.2636 31.535 94.8016 32.8204 94.1511 33.9848C93.4999 35.15 92.6495 36.2155 91.5986 37.1816C90.3463 38.3536 88.9551 39.1888 87.4242 39.6861C85.8933 40.1849 83.9435 40.4332 81.5731 40.4332H76.2011L74.7137 48.0875H68.4421L74.0377 19.2974H86.0978Z"
       fill="white"
       id="path916" />
  </g>
  <defs
     id="defs929">
    <radialGradient
       id="paint0_radial_6_39"
       cx="0"
       cy="0"
       r="1"
       gradientUnits="userSpaceOnUse"
       gradientTransform="translate(35.0657 13.3714) scale(71.7151 71.7151)">
      <stop
         stop-color="#AEB2D5"
         id="stop920" />
      <stop
         offset="0.3"
         stop-color="#AEB2D5"
         id="stop922" />
      <stop
         offset="0.75"
         stop-color="#484C89"
         id="stop924" />
      <stop
         offset="1"
         stop-color="#484C89"
         id="stop926" />
    </radialGradient>
  </defs>
</svg>
