<svg width="191" height="64" viewBox="0 0 191 64" fill="none" xmlns="http://www.w3.org/2000/svg">
<path d="M153.418 30.1219C151.089 29.1149 148.626 28.4499 146.107 28.1478C144.856 27.9982 143.663 27.5396 142.634 26.8134C142.344 26.43 142.143 25.9876 142.044 25.5176C141.945 25.0476 141.951 24.5615 142.06 24.0939C142.17 23.6263 142.382 23.1887 142.68 22.812C142.978 22.4354 143.355 22.129 143.785 21.9146C146.015 21.1112 148.464 21.1633 150.658 22.0609C151.266 22.4308 151.774 22.9442 152.137 23.5561C152.501 24.168 152.708 24.8596 152.742 25.5704H154.57C154.608 24.8459 154.495 24.1215 154.241 23.4422C153.986 22.7629 153.594 22.1433 153.089 21.6222C151.409 20.3387 149.311 19.7262 147.204 19.9039C145.303 19.7864 143.407 20.191 141.72 21.0738C139.289 22.6458 139.362 27.6725 142.085 28.8241C144.809 29.9757 148.063 30.1037 151.006 31.0176C151.394 31.1119 151.758 31.2878 152.073 31.5336C152.388 31.7794 152.647 32.0896 152.833 32.4434C153.22 33.2849 153.272 34.2416 152.98 35.1203C152.689 35.999 152.074 36.7343 151.261 37.1777C148.836 38.0727 146.159 38.0007 143.785 36.9766C143.052 36.5404 142.446 35.9189 142.029 35.1745C141.612 34.4301 141.398 33.5891 141.409 32.7358C140.751 32.7358 140.093 32.7358 139.453 32.7358C139.379 34.3899 139.949 36.0083 141.043 37.2508C142.903 38.7007 145.236 39.4046 147.587 39.2249C149.711 39.3869 151.828 38.8335 153.601 37.6529C155.74 35.9712 155.831 31.5111 153.418 30.1219Z" fill="#316192"/>
<path d="M175.28 32.5896C175.711 31.0118 175.793 29.3591 175.522 27.7462C175.251 26.1333 174.632 24.5988 173.708 23.2489C172.94 22.2884 171.982 21.497 170.893 20.9245C169.805 20.352 168.61 20.0108 167.383 19.9221C164.87 19.5715 162.311 20.0258 160.072 21.22C159.078 21.8182 158.216 22.6132 157.541 23.5562C156.865 24.4991 156.389 25.5702 156.142 26.7037C155.507 29.3224 155.798 32.0799 156.964 34.5089C157.556 35.6118 158.378 36.5745 159.375 37.3315C160.371 38.0885 161.519 38.622 162.74 38.8958C164.86 39.3622 167.055 39.3622 169.175 38.8958C169.924 38.7679 170.619 38.2378 171.386 38.2378C172.374 38.8776 173.214 39.7367 174.201 40.4496C174.622 40.0291 175.042 39.5904 175.444 39.1335C174.549 38.3657 173.617 37.6529 172.703 36.9034C173.941 35.7291 174.833 34.2367 175.28 32.5896ZM172.246 34.7099C171.455 35.6328 170.473 36.3735 169.369 36.8814C168.265 37.3893 167.063 37.6522 165.848 37.6522C164.632 37.6522 163.431 37.3893 162.327 36.8814C161.223 36.3735 160.241 35.6328 159.45 34.7099C158.643 33.5113 158.114 32.1472 157.902 30.7176C157.69 29.288 157.8 27.8291 158.226 26.4478C158.564 25.2739 159.196 24.2059 160.063 23.3453C160.93 22.4847 162.003 21.8601 163.179 21.5307C164.561 21.1006 166.029 21.0259 167.448 21.3134C168.866 21.601 170.19 22.2415 171.295 23.1758C174.201 25.8994 174.457 31.4197 172.246 34.7099Z" fill="#316192"/>
<path d="M178.826 37.1959C178.826 31.5476 178.826 25.8994 178.826 20.2512H176.998V38.7496C181.568 38.7496 186.138 38.7496 190.726 38.7496C190.726 38.2561 190.726 37.7442 190.726 37.2507C186.723 37.1593 182.847 37.269 178.826 37.1959Z" fill="#316192"/>
<path d="M78.8945 34.326C78.8945 34.1066 78.8945 33.8873 78.8031 33.6679C78.8214 33.8873 78.8579 34.1066 78.8945 34.326Z" fill="#1A1A1A"/>
<path d="M82.7696 38.2194C82.5685 38.2194 82.3675 38.128 82.1664 38.0549C82.3126 38.128 82.5685 38.1646 82.7696 38.2194Z" fill="#1A1A1A"/>
<path d="M77.9439 23.7424C77.4928 23.3292 76.9612 23.0136 76.3824 22.8154C75.8037 22.6173 75.1902 22.5408 74.5805 22.5908C72.0215 22.5908 69.4624 22.5908 66.9033 22.5908V38.0001H68.2743C68.2743 35.8248 68.2743 33.6314 68.2743 31.4561C70.4677 31.4561 72.6612 31.4561 74.8364 31.4561C75.7068 31.4673 76.5602 31.2148 77.2844 30.732C78.0087 30.2492 78.5699 29.5585 78.8944 28.7508C79.1893 27.906 79.2567 26.9984 79.0898 26.1193C78.923 25.2402 78.5278 24.4204 77.9439 23.7424ZM77.2493 28.4949C77.0104 29.0606 76.6035 29.5393 76.0837 29.8662C75.5639 30.1931 74.9562 30.3525 74.3429 30.3228C72.3139 30.3228 70.3032 30.3228 68.2925 30.3228C68.2925 28.1659 68.2925 26.0273 68.2925 23.8886H74.1236C74.6384 23.8428 75.1569 23.9162 75.6387 24.1033C76.1206 24.2903 76.5529 24.5859 76.902 24.9671C77.2125 25.4879 77.4047 26.0706 77.4647 26.674C77.5247 27.2774 77.4512 27.8866 77.2493 28.4584V28.4949Z" fill="#1A1A1A"/>
<path d="M107.154 28.9336C107.154 28.5863 107.154 28.2208 107.154 27.8735H104.723V24.5649H103.315C103.315 25.6617 103.315 26.7584 103.315 27.8552C102.712 27.8552 102.127 27.8552 101.487 27.8552V28.8971H103.315C103.315 31.2368 103.315 33.5582 103.315 35.898C103.269 36.2416 103.313 36.5915 103.445 36.9124C103.576 37.2333 103.79 37.5139 104.065 37.7259C105.028 38.1564 106.105 38.2653 107.136 38.0366V37.013C106.461 37.142 105.765 37.0787 105.125 36.8302C104.686 36.5377 104.723 35.898 104.723 35.4044C104.723 33.2475 104.723 31.0906 104.723 28.9154L107.154 28.9336Z" fill="#1A1A1A"/>
<path d="M90.2274 33.0283C90.2274 32.8273 90.2274 32.6445 90.2274 32.4617C90.2091 32.6445 90.2274 32.8821 90.2274 33.0283Z" fill="#1A1A1A"/>
<path d="M89.6243 30.2864C89.5533 30.1207 89.4677 29.9616 89.3683 29.8112C89.3683 29.6649 89.1856 29.5187 89.0759 29.3725C88.8008 29.0244 88.4667 28.7274 88.0888 28.4951C86.4826 27.5791 84.5935 27.2925 82.7879 27.6908C81.7383 27.8876 80.7783 28.4125 80.046 29.1897C79.9142 29.3338 79.7921 29.4865 79.6804 29.6466C79.5 29.8977 79.3468 30.1674 79.2235 30.4509C78.9861 31.0358 78.8323 31.6511 78.7665 32.2788C78.7665 32.4982 78.7665 32.7175 78.7665 32.9369V33.2659C78.7665 33.3756 78.7665 33.5035 78.7665 33.5949C78.7665 33.6863 78.7665 34.0336 78.8579 34.253C78.9532 34.6788 79.0878 35.095 79.26 35.496C79.404 35.8012 79.5818 36.0894 79.7901 36.3551C79.8469 36.448 79.9144 36.5338 79.9912 36.611C80.2041 36.8623 80.4501 37.0836 80.7223 37.269L80.9782 37.4518C81.161 37.5662 81.3502 37.6699 81.5449 37.7626C81.7356 37.8467 81.9308 37.92 82.1298 37.9819C82.3309 37.9819 82.532 38.0916 82.733 38.1464H83.3362C84.9043 38.3754 86.5046 38.1001 87.906 37.3604C88.1394 37.2293 88.3597 37.0763 88.5641 36.9034C88.7772 36.7142 88.973 36.5062 89.149 36.282C89.83 35.2791 90.1931 34.0943 90.1909 32.882C90.1909 32.681 90.1909 32.4982 90.1909 32.3154C90.1122 31.613 89.9209 30.9279 89.6243 30.2864ZM87.7963 35.9529C87.4099 36.3713 86.9405 36.7044 86.418 36.931C85.8955 37.1576 85.3315 37.2727 84.762 37.269C84.1399 37.3405 83.5098 37.2779 82.9139 37.0856C82.318 36.8933 81.7702 36.5756 81.3073 36.154C80.7718 35.4784 80.4156 34.6785 80.2718 33.8285C80.128 32.9785 80.2012 32.1059 80.4847 31.2918C80.6873 30.6149 81.0818 30.0112 81.6203 29.5538C82.1588 29.0964 82.8183 28.8049 83.519 28.7144C84.8368 28.4777 86.1956 28.7313 87.3394 29.4273C87.767 29.7691 88.1157 30.1992 88.3618 30.6882C88.6079 31.1771 88.7455 31.7135 88.7651 32.2606C88.8579 32.9095 88.8201 33.5705 88.6537 34.2046C88.4873 34.8387 88.1958 35.4331 87.7963 35.9529Z" fill="#1A1A1A"/>
<path d="M98.8735 32.681C97.1553 32.2606 95.4005 32.3154 93.7005 31.8401C93.3818 31.7647 93.0987 31.5817 92.8989 31.322C92.6992 31.0624 92.595 30.7418 92.6038 30.4144C92.6362 29.9521 92.843 29.5194 93.1824 29.2038C93.5217 28.8882 93.9683 28.7133 94.4317 28.7144C95.7276 28.4163 97.0847 28.5379 98.3069 29.0617C98.6132 29.2617 98.8676 29.5319 99.0487 29.8497C99.2299 30.1676 99.3328 30.5241 99.3488 30.8896H100.829C100.821 30.4365 100.72 29.9899 100.531 29.5778C100.342 29.1658 100.071 28.7971 99.7326 28.4951C98.3957 27.6848 96.822 27.3559 95.2725 27.5628C94.1653 27.5534 93.0771 27.8508 92.1285 28.4219C91.8204 28.6886 91.5779 29.0226 91.4199 29.3981C91.2618 29.7737 91.1925 30.1806 91.2172 30.5873C91.242 30.994 91.3602 31.3895 91.5626 31.7431C91.765 32.0967 92.0463 32.3989 92.3844 32.6261C94.45 33.4853 96.7531 33.2659 98.8552 33.9422C99.0937 34.0812 99.2939 34.2774 99.4376 34.513C99.5814 34.7486 99.6643 35.0163 99.6788 35.2919C99.6933 35.5676 99.639 35.8425 99.5207 36.0919C99.4025 36.3413 99.224 36.5574 99.0015 36.7207C97.5517 37.3811 95.9189 37.5231 94.3769 37.1228C93.826 37.0439 93.3219 36.7699 92.9562 36.3505C92.5905 35.9311 92.3876 35.3943 92.3844 34.8379H90.849C90.8976 35.773 91.2879 36.6576 91.9457 37.3239C93.146 38.0763 94.554 38.4283 95.9671 38.3292C97.4066 38.4531 98.8504 38.1478 100.116 37.4518C100.625 37.0587 100.983 36.5024 101.129 35.8765C101.276 35.2506 101.202 34.5933 100.921 34.0153C100.689 33.6647 100.388 33.3653 100.036 33.1357C99.6834 32.9062 99.2879 32.7514 98.8735 32.681Z" fill="#1A1A1A"/>
<path d="M119.181 27.8918H117.829V29.5186C117.291 28.84 116.602 28.2956 115.818 27.9283C114.375 27.4986 112.838 27.4986 111.395 27.9283C110.619 28.1039 109.906 28.4878 109.333 29.0386C108.76 29.5894 108.347 30.2863 108.141 31.054C107.926 31.8877 107.882 32.7561 108.011 33.6073C108.139 34.4584 108.439 35.2749 108.89 36.0077C109.285 36.5249 109.783 36.9544 110.353 37.2691C110.922 37.5837 111.551 37.7766 112.199 37.8356C113.202 38.0476 114.242 38.003 115.223 37.7058C116.204 37.4087 117.094 36.8686 117.811 36.1356C117.994 37.4174 117.804 38.7249 117.262 39.9011C116.883 40.3849 116.393 40.7692 115.832 41.0208C115.272 41.2724 114.658 41.3837 114.045 41.3452C112.987 41.4273 111.926 41.2452 110.956 40.8151C110.316 40.4678 110.097 39.6452 109.804 38.9872H108.433C108.471 39.4915 108.619 39.9816 108.865 40.4235C109.111 40.8653 109.45 41.2484 109.859 41.5462C111.086 42.1418 112.446 42.4124 113.807 42.3322C114.591 42.3931 115.378 42.2985 116.125 42.0538C116.872 41.8091 117.563 41.4192 118.158 40.9065C118.573 40.4001 118.882 39.8157 119.067 39.1877C119.252 38.5598 119.31 37.9012 119.236 37.2506C119.2 34.1249 119.309 31.054 119.181 27.8918ZM117.043 35.3496C116.497 35.9435 115.803 36.3805 115.031 36.6152C114.26 36.8498 113.44 36.8736 112.656 36.684C112.016 36.6317 111.404 36.4021 110.887 36.0211C110.37 35.6402 109.97 35.1228 109.731 34.5271C109.494 33.8768 109.391 33.1851 109.429 32.4939C109.466 31.8027 109.644 31.1263 109.951 30.5057C110.228 30.0425 110.605 29.6466 111.054 29.3463C111.502 29.0461 112.012 28.8489 112.546 28.7692C113.22 28.6196 113.916 28.6073 114.595 28.7329C115.273 28.8585 115.919 29.1195 116.494 29.5003C117.259 30.2553 117.733 31.2555 117.833 32.3252C117.933 33.3949 117.654 34.4657 117.043 35.3496Z" fill="#1A1A1A"/>
<path d="M126.749 27.581C125.648 27.4563 124.533 27.5941 123.495 27.9831C122.898 28.3878 122.434 28.9602 122.161 29.6283C122.161 29.0616 122.161 28.4767 122.161 27.8917H120.699C120.699 31.2551 120.699 34.6367 120.699 38.0001H122.07C122.07 36.1722 122.07 34.5088 122.07 32.754C122.03 32.1455 122.124 31.5357 122.345 30.9674C122.567 30.399 122.909 29.8859 123.349 29.4637C124.342 28.8662 125.518 28.6516 126.658 28.8605L126.749 27.581Z" fill="#1A1A1A"/>
<path d="M137.972 33.2294C138.01 31.786 137.552 30.3734 136.675 29.2263C136.026 28.5804 135.235 28.0953 134.366 27.8096C133.496 27.524 132.571 27.4457 131.666 27.5812C130.768 27.5708 129.884 27.7967 129.101 28.2362C128.318 28.6758 127.665 29.3135 127.206 30.0854C126.617 31.2191 126.409 32.5124 126.613 33.7736C126.818 35.0347 127.423 36.1964 128.339 37.0863C129.217 37.7139 130.23 38.1281 131.296 38.2963C132.362 38.4645 133.453 38.3819 134.481 38.0551C135.277 37.84 136.002 37.4167 136.58 36.8288C137.158 36.2409 137.569 35.5096 137.771 34.71H136.254C136.082 35.2613 135.783 35.7641 135.379 36.1771C134.976 36.5901 134.48 36.9017 133.933 37.0863C133.1 37.3582 132.209 37.405 131.352 37.2221C130.495 37.0391 129.702 36.6328 129.052 36.0444C128.401 35.2629 128.033 34.2834 128.01 33.266C131.319 33.2112 134.646 33.266 137.972 33.2294ZM128.01 32.2972C128.081 31.6854 128.281 31.0955 128.596 30.5663C128.911 30.0371 129.334 29.5804 129.838 29.2263C130.79 28.6222 131.931 28.3924 133.042 28.5815C134.153 28.7706 135.154 29.3651 135.852 30.25C136.282 30.8439 136.535 31.5472 136.583 32.2789C133.677 32.3155 130.844 32.3155 128.01 32.2972Z" fill="#1A1A1A"/>
<path d="M37.0536 1.05814C34.3499 0.592204 31.5865 0.592204 28.8828 1.05814C27.3312 1.39351 25.8313 1.93447 24.4228 2.6667C19.9724 1.03359 15.1848 0.537233 10.4941 1.22265C8.83642 1.52801 7.25977 2.17277 5.86312 3.11645C4.46648 4.06012 3.28 5.28235 2.37819 6.70638C0.402725 10.3332 -0.37165 14.4931 0.166417 18.5878C0.799967 23.1277 1.77767 27.6129 3.09107 32.0046C4.12906 35.8385 5.65245 39.5242 7.62428 42.9721C8.67126 45.0675 10.4743 46.6876 12.6693 47.5053C13.551 47.7217 14.4719 47.7216 15.3535 47.5052C16.2352 47.2888 17.0514 46.8624 17.7326 46.2623C18.436 46.9709 19.2839 47.5196 20.2186 47.8709C22.9392 48.8104 25.9042 48.7586 28.5904 47.7246C28.447 51.4295 28.9038 55.1331 29.943 58.6921C30.4545 60.3694 31.5173 61.825 32.9591 62.8231C34.6329 63.8453 36.6376 64.1794 38.5525 63.7554C40.2968 63.5281 41.9831 62.9764 43.5244 62.1285C45.0882 61.1317 46.3221 59.6943 47.0705 57.9975C48.4799 54.1601 49.1617 50.0936 49.0812 46.0064C53.0671 46.3936 57.0454 45.1988 60.1584 42.6796C60.8419 42.2128 61.3717 41.5538 61.6808 40.786C61.9898 40.0182 62.0644 39.1759 61.8949 38.3657C61.6682 37.6714 61.2158 37.0728 60.6096 36.6654C60.0034 36.2579 59.2783 36.065 58.5498 36.1174C57.0326 36.2271 55.5703 36.7023 54.0531 36.7023C57.5516 30.8461 60.0243 24.4355 61.3648 17.7469C61.9769 14.9529 61.9769 12.0595 61.3648 9.26545C60.7955 7.70123 59.8247 6.31434 58.5498 5.24405C55.9036 2.68419 52.546 0.983104 48.9167 0.363537C44.9601 -0.29445 40.9064 -0.0570952 37.0536 1.05814Z" fill="white"/>
<path d="M37.0353 2.86773C41.247 1.48213 45.7638 1.31108 50.0682 2.37419C53.5148 3.30064 56.56 5.33718 58.7325 8.16866C59.5008 9.39325 59.8888 10.8181 59.8475 12.2632C59.8729 14.7846 59.5656 17.2983 58.9336 19.7393C57.3172 26.2257 54.6431 32.4015 51.0187 38.0184C53.065 38.6222 55.2422 38.6222 57.2885 38.0184C58.1476 37.8539 59.2626 37.6345 59.9024 38.384C60.5422 39.1334 59.9024 40.2119 59.2809 40.8517C57.7298 42.2052 55.8857 43.1805 53.8938 43.7006C51.902 44.2208 49.8165 44.2717 47.8016 43.8494C47.3812 47.4138 46.9608 50.9965 46.4124 54.5427C46.2389 56.6094 45.3463 58.5498 43.8899 60.0264C42.3587 61.1802 40.5481 61.9057 38.6438 62.1285C37.6942 62.3292 36.7124 62.322 35.7658 62.1075C34.8193 61.8929 33.9303 61.4761 33.1601 60.8855C31.5906 59.4249 30.6254 57.4293 30.4548 55.2921C30.1102 51.7143 29.976 48.1193 30.0526 44.5257C28.3256 46.0023 26.0857 46.738 23.8195 46.573C22.1713 46.5971 20.5647 46.0552 19.268 45.0376C19.1116 44.8875 18.9892 44.7056 18.909 44.5043C18.8288 44.3029 18.7927 44.0867 18.8031 43.8702C18.8135 43.6537 18.8701 43.4419 18.9692 43.2491C19.0683 43.0564 19.2076 42.8871 19.3777 42.7527C20.777 42.0619 22.2659 41.5697 23.8012 41.2903C24.8797 40.9796 25.4463 39.9377 26.1226 39.1334C24.851 39.0611 23.6073 38.7315 22.4668 38.1646C20.7486 39.9925 19.0852 41.9118 17.4584 43.8311C17.0201 44.43 16.4398 44.9106 15.7698 45.2297C15.0998 45.5487 14.3609 45.6963 13.6198 45.659C12.7997 45.4718 12.0265 45.119 11.3476 44.6224C10.6687 44.1258 10.0983 43.4958 9.67147 42.771C7.88623 40.0107 6.49574 37.0144 5.5404 33.869C3.88364 28.8902 2.66048 23.7773 1.88459 18.5877C1.28723 14.6107 2.08143 10.5493 4.13291 7.09019C5.0766 5.80211 6.29018 4.73562 7.68884 3.96526C9.08749 3.19489 10.6375 2.73922 12.2305 2.6301C16.4703 2.301 20.73 2.92559 24.6969 4.45801C26.3756 3.43772 28.2393 2.7591 30.181 2.46109C32.1227 2.16309 34.1042 2.25159 36.0116 2.72149C36.3427 2.82511 36.6884 2.87449 37.0353 2.86773ZM40.1427 3.94619C40.947 4.51284 41.8792 4.91498 42.7018 5.48163C46.0734 7.78348 48.7279 10.9891 50.3607 14.7308C50.9221 15.7706 51.2232 16.9309 51.2381 18.1125C51.2381 20.5436 50.4338 22.9199 50.6714 25.4241C51.1672 27.9982 51.2167 30.6384 50.8177 33.2293C50.5621 34.1088 50.2319 34.965 49.8306 35.7883C49.8306 35.9163 49.8306 36.1722 49.922 36.2819C50.2327 35.8797 50.5069 35.4593 50.7811 35.0206C53.4181 30.5707 55.4643 25.7962 56.8681 20.8178C57.6551 18.1328 58.0732 15.3533 58.111 12.5556C58.1645 11.3386 57.8318 10.1358 57.1605 9.11917C55.5575 7.10471 53.4426 5.558 51.037 4.6408C47.5468 3.37195 43.7658 3.13088 40.1427 3.94619ZM30.144 4.29349C28.8038 4.46924 27.5121 4.91057 26.3445 5.59167C25.1769 6.27276 24.1569 7.17992 23.3442 8.26005C21.2554 11.2588 20.0635 14.7903 19.9078 18.4415C22.0676 17.1739 24.5961 16.6837 27.0732 17.0523C27.8612 17.2688 28.5738 17.6994 29.132 18.2964C29.6902 18.8933 30.0722 19.6332 30.2354 20.4339C31.0861 23.6117 31.2296 26.9374 30.6559 30.1767C30.1075 32.7723 28.5172 35.0206 27.9871 37.6345C28.6696 37.6321 29.344 37.782 29.9613 38.0732C30.5587 38.4295 31.0457 38.9444 31.3684 39.5607C31.6911 40.1769 31.8367 40.8705 31.7892 41.5645C31.6978 45.1107 31.6978 48.6568 31.8988 52.203C31.9378 53.6786 32.1153 55.1474 32.4289 56.5899C32.6361 57.4917 33.0864 58.3195 33.7309 58.9833C34.3754 59.6472 35.1895 60.1217 36.0847 60.3554C38.0768 60.5728 40.0875 60.1707 41.8427 59.2038C42.6324 58.6966 43.2941 58.0135 43.7761 57.2081C44.2581 56.4027 44.5473 55.4967 44.6211 54.561C45.2426 50.7955 45.663 46.9751 46.1017 43.1731C46.0387 41.7819 46.2691 40.3931 46.778 39.0969C47.2886 38.3889 48.0027 37.8533 48.8253 37.5614C48.1469 36.7729 47.5354 35.9291 46.9974 35.0389C45.1694 31.1455 42.5555 27.4531 41.7695 23.1392C41.5204 22.2183 41.5158 21.2483 41.7562 20.3251C41.9966 19.4018 42.4738 18.5573 43.1405 17.8748C44.9187 16.705 47.0725 16.2481 49.1726 16.5953C47.9092 13.0862 45.6785 10.0063 42.7383 7.71168C40.9682 6.33954 38.9441 5.33112 36.7826 4.74448C34.6212 4.15783 32.365 4.00457 30.144 4.29349ZM11.3166 4.58596C10.0731 4.78696 8.88818 5.25554 7.84355 5.95932C6.79893 6.66311 5.91956 7.5853 5.26622 8.66219C3.77123 11.6636 3.22912 15.0503 3.7125 18.3684C4.33274 22.6989 5.27987 26.9762 6.54575 31.1637C7.50831 34.7312 8.92753 38.1595 10.7682 41.3635C11.4135 42.4812 12.4094 43.3549 13.6015 43.8494C14.7165 44.087 15.6122 43.1548 16.2519 42.3871C17.7508 40.5592 19.3594 38.8592 20.8948 37.0679C19.7719 36.0476 18.9091 34.7738 18.3781 33.3525C17.8471 31.9313 17.6634 30.4037 17.8422 28.8971C18.1577 26.5836 18.2373 24.2441 18.0798 21.9145C17.8655 18.5919 18.2937 15.2591 19.3411 12.0987C20.0854 9.73888 21.3327 7.56861 22.9969 5.73754C19.254 4.41418 15.2459 4.01901 11.3166 4.58596ZM44.3834 19.2092C43.9136 19.7083 43.5874 20.3251 43.4394 20.9944C43.2913 21.6637 43.327 22.3606 43.5426 23.0113C44.3652 27.0509 46.7232 30.5057 48.5328 34.125C49.9037 31.4014 49.0629 28.2939 48.8435 25.4241C48.8831 23.0929 49.0724 20.7667 49.4102 18.4598C47.7047 18.1028 45.9282 18.3483 44.3834 19.1544V19.2092ZM19.8346 20.6898C19.8346 22.6274 20.0174 24.5833 19.8346 26.5209C19.5458 28.2234 19.4843 29.9568 19.6519 31.6756C19.9236 33.2143 20.7101 34.615 21.8826 35.6479C23.055 36.6809 24.5437 37.2847 26.1044 37.3603C26.5827 35.8305 27.1629 34.3344 27.8409 32.882C29.4808 29.0307 29.6947 24.7211 28.4441 20.7264C28.2974 20.1754 27.9792 19.6854 27.5356 19.3273C27.092 18.9691 26.5459 18.7613 25.9764 18.734C23.7824 18.7214 21.6379 19.3852 19.8346 20.635V20.6898ZM48.5145 39.7549C48.2799 40.0611 48.1102 40.4119 48.0159 40.7859C47.9216 41.16 47.9047 41.5493 47.9661 41.9301C49.2904 42.3108 50.6828 42.3919 52.0424 42.1677C54.1311 42.0237 56.1121 41.1876 57.6723 39.7915C55.2047 40.0839 52.5176 40.6871 50.1962 39.4624C49.6661 39.0786 48.9898 39.4076 48.5145 39.7549ZM25.1904 42.5882C23.7313 43.1456 22.2423 43.6216 20.7303 44.0139C22.2007 44.7536 23.8776 44.9756 25.4898 44.6439C27.102 44.3121 28.5551 43.4461 29.6139 42.186C29.8263 41.9394 29.9626 41.6364 30.0061 41.3138C30.0497 40.9913 29.9987 40.663 29.8594 40.3689C29.72 40.0747 29.4983 39.8273 29.2211 39.6567C28.944 39.4861 28.6232 39.3995 28.2979 39.4076C27.0549 40.3033 26.5248 41.8753 25.1904 42.5882Z" fill="white"/>
<path d="M44.9136 19.6844C45.3341 19.4064 45.8192 19.2418 46.3221 19.2066C46.8249 19.1714 47.3283 19.2667 47.7834 19.4833C47.7649 19.7576 47.6786 20.0231 47.5324 20.2559C47.3862 20.4887 47.1846 20.6816 46.9455 20.8174C46.7065 20.9532 46.4375 21.0277 46.1627 21.0341C45.8878 21.0406 45.6157 20.9788 45.3706 20.8543C44.9684 20.6715 44.4383 20.0865 44.9136 19.6844Z" fill="white"/>
<path d="M24.9346 19.7576C25.3729 19.6253 25.836 19.5977 26.2868 19.6771C26.7377 19.7565 27.1636 19.9406 27.5303 20.2146C28.0238 20.6167 27.5303 21.2747 27.1464 21.5124C26.9006 21.6612 26.6232 21.7501 26.3366 21.7717C26.0501 21.7932 25.7625 21.7469 25.4972 21.6365C25.2318 21.5261 24.9963 21.3547 24.8096 21.1363C24.623 20.9178 24.4904 20.6584 24.4228 20.3791C24.368 20.0866 24.6605 19.849 24.9346 19.7576Z" fill="white"/>
<path d="M40.1427 3.94626C43.7839 3.09902 47.5922 3.32117 51.1101 4.58603C53.4955 5.52986 55.5846 7.09513 57.1605 9.11924C57.8152 10.135 58.1349 11.3305 58.0745 12.5374C58.0367 15.3351 57.6185 18.1146 56.8315 20.7996C55.4277 25.778 53.3816 30.5525 50.7446 35.0024C50.4704 35.4411 50.1962 35.8615 49.8854 36.2637C49.8854 36.154 49.8854 35.8981 49.7941 35.7701C50.1953 34.9468 50.5256 34.0906 50.7811 33.2111C51.1801 30.6202 51.1307 27.98 50.6349 25.4059C50.3973 22.9748 51.2198 20.5985 51.2015 18.0943C51.1979 16.9158 50.9094 15.7556 50.3607 14.7126C48.7279 10.9709 46.0734 7.76528 42.7018 5.46343C41.8792 4.91506 40.947 4.51292 40.1427 3.94626Z" fill="#316192"/>
<path d="M30.1442 4.29349C32.3622 4.00704 34.615 4.16155 36.7732 4.74814C38.9313 5.33473 40.9524 6.34186 42.7202 7.71168C45.6604 10.0063 47.8911 13.0862 49.1545 16.5953C47.0544 16.2481 44.9006 16.7049 43.1224 17.8748C42.4556 18.5573 41.9785 19.4018 41.7381 20.3251C41.4977 21.2483 41.5023 22.2183 41.7514 23.1392C42.5374 27.4531 45.0965 31.1455 46.9792 35.0389C47.5173 35.9291 48.1287 36.7729 48.8071 37.5614C47.9846 37.8533 47.2705 38.3889 46.7599 39.0969C46.251 40.3931 46.0206 41.7819 46.0836 43.1731C45.6449 46.9751 45.2244 50.7955 44.603 54.561C44.5292 55.4967 44.24 56.4027 43.758 57.2081C43.276 58.0135 42.6143 58.6966 41.8245 59.2038C40.0693 60.1707 38.0587 60.5728 36.0666 60.3554C35.1714 60.1217 34.3573 59.6472 33.7128 58.9833C33.0683 58.3195 32.618 57.4917 32.4108 56.5899C32.0972 55.1474 31.9197 53.6787 31.8807 52.203C31.6797 48.6568 31.6797 45.1107 31.771 41.5645C31.8186 40.8705 31.6729 40.1769 31.3503 39.5607C31.0276 38.9444 30.5406 38.4295 29.9431 38.0732C29.3259 37.782 28.6515 37.6321 27.969 37.6345C28.4991 35.0206 30.0894 32.7723 30.6377 30.1767C31.2115 26.9374 31.068 23.6117 30.2173 20.4339C30.054 19.6332 29.6721 18.8933 29.1139 18.2964C28.5557 17.6994 27.8431 17.2688 27.055 17.0523C24.578 16.6837 22.0495 17.1739 19.8896 18.4415C20.0453 14.7903 21.2373 11.2588 23.3261 8.26005C24.1409 7.17788 25.1638 6.26951 26.3346 5.58833C27.5055 4.90715 28.8008 4.46691 30.1442 4.29349Z" fill="#316192"/>
<path d="M11.3168 4.58587C15.273 4.01855 19.3078 4.42643 23.0703 5.77401C21.406 7.60508 20.1588 9.77535 19.4145 12.1351C18.347 15.2792 17.894 18.5993 18.0801 21.9144C18.2388 24.2501 18.1592 26.5958 17.8425 28.9153C17.6637 30.4219 17.8474 31.9495 18.3784 33.3707C18.9093 34.792 19.7722 36.0658 20.8951 37.0861C19.3596 38.914 17.7511 40.5774 16.2522 42.4053C15.6124 43.173 14.7168 44.1052 13.6017 43.8676C12.3802 43.339 11.3747 42.4108 10.7502 41.2354C8.91095 38.0372 7.49177 34.6152 6.52773 31.054C5.26184 26.8664 4.31472 22.5891 3.69447 18.2586C3.21673 14.9386 3.76524 11.5519 5.26647 8.55243C5.9314 7.49594 6.81588 6.5949 7.85985 5.91049C8.90382 5.22607 10.0828 4.77431 11.3168 4.58587Z" fill="#316192"/>
<path d="M44.3834 19.1544C45.9282 18.3483 47.7047 18.1028 49.4102 18.4598C49.0747 20.7486 48.8854 23.0564 48.8435 25.3693C49.0628 28.2391 49.9037 31.3465 48.5328 34.0701C46.7048 30.4143 44.3651 26.9961 43.5426 22.9564C43.327 22.3058 43.2913 21.6089 43.4393 20.9396C43.5873 20.2703 43.9135 19.6535 44.3834 19.1544ZM44.9135 19.6845C44.4382 20.0866 44.9135 20.6716 45.3705 20.8543C45.6156 20.9788 45.8877 21.0406 46.1626 21.0342C46.4374 21.0278 46.7064 20.9533 46.9454 20.8175C47.1845 20.6817 47.3861 20.4888 47.5323 20.2559C47.6785 20.0231 47.7648 19.7577 47.7833 19.4834C47.3282 19.2668 46.8248 19.1715 46.322 19.2067C45.8192 19.2419 45.334 19.4065 44.9135 19.6845Z" fill="#316192"/>
<path d="M19.8347 20.635C21.6294 19.3593 23.7746 18.6698 25.9765 18.6609C26.546 18.6882 27.092 18.896 27.5356 19.2542C27.9792 19.6124 28.2974 20.1024 28.4442 20.6533C29.7128 24.6704 29.4988 29.0093 27.8409 32.882C27.1808 34.3418 26.619 35.844 26.1593 37.3787C24.5986 37.303 23.1099 36.6992 21.9375 35.6662C20.7651 34.6333 19.9785 33.2326 19.7068 31.6939C19.5392 29.9751 19.6007 28.2417 19.8895 26.5392C20.0175 24.5285 19.8713 22.5726 19.8347 20.635ZM24.9346 19.7576C24.6604 19.7576 24.3679 20.0501 24.4228 20.3791C24.4904 20.6584 24.6229 20.9178 24.8096 21.1363C24.9962 21.3548 25.2318 21.5262 25.4971 21.6366C25.7624 21.747 26.05 21.7933 26.3366 21.7717C26.6231 21.7501 26.9005 21.6613 27.1463 21.5124C27.5668 21.2748 28.0237 20.6167 27.5302 20.2146C27.1635 19.9406 26.7376 19.7565 26.2868 19.6772C25.836 19.5978 25.3728 19.6254 24.9346 19.7576Z" fill="#316192"/>
<path d="M48.5146 39.755C48.9899 39.4077 49.6662 39.0786 50.1963 39.4625C52.5178 40.6872 55.2048 40.084 57.6725 39.7915C56.1123 41.1876 54.1312 42.0238 52.0425 42.1678C50.6897 42.4218 49.2974 42.3718 47.9663 42.0216C47.8916 41.6265 47.9019 41.22 47.9964 40.8292C48.091 40.4384 48.2676 40.0722 48.5146 39.755Z" fill="#316192"/>
<path d="M25.1906 42.5882C26.5249 41.8754 27.0185 40.3034 28.298 39.4808C28.6234 39.4727 28.9441 39.5593 29.2213 39.7299C29.4985 39.9005 29.7202 40.1479 29.8595 40.4421C29.9988 40.7362 30.0498 41.0645 30.0063 41.387C29.9627 41.7096 29.8265 42.0126 29.6141 42.2592C28.5552 43.5193 27.1021 44.3853 25.49 44.7171C23.8778 45.0488 22.2008 44.8268 20.7305 44.0871C22.2439 43.6709 23.7329 43.1705 25.1906 42.5882Z" fill="#316192"/>
<path d="M37.0536 1.05814C40.9064 -0.0570952 44.9601 -0.29445 48.9167 0.363537C52.546 0.983104 55.9036 2.68419 58.5498 5.24405C59.7979 6.32327 60.743 7.70935 61.2917 9.26545C61.9038 12.0595 61.9038 14.9529 61.2917 17.7469C59.9512 24.4355 57.4785 30.8461 53.98 36.7023C55.4972 36.7023 56.9595 36.2271 58.4767 36.1174C59.2171 36.0479 59.9592 36.2327 60.5805 36.6414C61.2019 37.0501 61.6655 37.6583 61.8949 38.3657C62.0303 39.1509 61.9389 39.9585 61.6313 40.6935C61.3237 41.4285 60.8127 42.0605 60.1584 42.5151C57.0454 45.0342 53.0671 46.2291 49.0812 45.8419C49.1617 49.9291 48.4799 53.9956 47.0705 57.833C46.3499 59.5904 45.1135 61.088 43.5244 62.1285C41.984 63.0104 40.291 63.5934 38.5342 63.8468C36.6134 64.2388 34.6154 63.8719 32.9591 62.8231C31.504 61.7942 30.4459 60.2974 29.9613 58.5824C28.9221 55.0234 28.4653 51.3198 28.6087 47.615C25.9225 48.6489 22.9575 48.7007 20.2368 47.7612C19.3022 47.4099 18.4543 46.8613 17.7509 46.1526C17.0779 46.7746 16.2633 47.223 15.3777 47.4587C14.4922 47.6944 13.5624 47.7104 12.6693 47.5053C10.4963 46.7187 8.69657 45.1471 7.62428 43.1C5.65245 39.6521 4.12906 35.9665 3.09107 32.1326C1.77767 27.7409 0.799967 23.2557 0.166417 18.7157C-0.37165 14.621 0.402725 10.4611 2.37819 6.83433C3.28 5.4103 4.46648 4.18808 5.86312 3.2444C7.25977 2.30072 8.83642 1.65597 10.4941 1.35061C15.1787 0.64183 19.9662 1.11304 24.4228 2.72154C25.8247 1.945 27.3249 1.3609 28.8828 0.985026C31.5907 0.543262 34.3541 0.567991 37.0536 1.05814ZM37.0536 2.88605C36.7077 2.89874 36.3621 2.85553 36.03 2.7581C34.1166 2.30165 32.1319 2.22817 30.19 2.54188C28.2481 2.85559 26.3875 3.55029 24.7152 4.586C20.7484 3.05359 16.4887 2.429 12.2489 2.7581C10.6631 2.8494 9.11603 3.28407 7.71474 4.03206C6.31345 4.78005 5.09135 5.8235 4.13298 7.09024C2.08149 10.5493 1.2873 14.6107 1.88465 18.5878C2.66054 23.7774 3.8837 28.8902 5.54047 33.8691C6.48532 37.0325 7.86977 40.0475 9.65326 42.8258C10.0818 43.5419 10.6509 44.1638 11.3264 44.6539C12.0018 45.1439 12.7696 45.4921 13.5833 45.6774C14.3245 45.7146 15.0633 45.567 15.7333 45.248C16.4033 44.9289 16.9836 44.4483 17.4219 43.8495C19.0487 42.0216 20.7121 40.0291 22.4303 38.1829C23.5709 38.7499 24.8146 39.0794 26.0861 39.1517C25.4098 39.956 24.8432 40.9797 23.7647 41.3087C22.2294 41.5881 20.7405 42.0802 19.3412 42.771C19.1711 42.9054 19.0319 43.0747 18.9327 43.2675C18.8336 43.4602 18.777 43.672 18.7666 43.8885C18.7562 44.105 18.7923 44.3212 18.8725 44.5226C18.9527 44.724 19.0751 44.9058 19.2315 45.0559C20.5282 46.0735 22.1348 46.6155 23.783 46.5913C26.0641 46.7612 28.3192 46.0182 30.0527 44.5258C29.976 48.1194 30.1103 51.7143 30.4548 55.2922C30.6255 57.4293 31.5907 59.425 33.1602 60.8856C33.9304 61.4761 34.8193 61.893 35.7659 62.1075C36.7125 62.3221 37.6943 62.3292 38.6439 62.1285C40.5717 61.88 42.3967 61.1159 43.9265 59.9168C45.3829 58.4402 46.2755 56.4997 46.449 54.4331C46.9974 50.8869 47.4178 47.3042 47.8382 43.7398C49.8532 44.1621 51.9386 44.1112 53.9305 43.591C55.9223 43.0708 57.7664 42.0956 59.3175 40.742C59.9573 40.1388 60.5605 39.0969 59.939 38.2743C59.3175 37.4518 58.1111 37.7443 57.3251 37.9088C55.2788 38.5126 53.1017 38.5126 51.0554 37.9088C54.6798 32.2918 57.3539 26.1161 58.9702 19.6297C59.6022 17.1887 59.9095 14.6749 59.8842 12.1535C59.9254 10.7085 59.5374 9.28362 58.7691 8.05903C56.5966 5.22755 53.5514 3.19101 50.1049 2.26456C45.7786 1.2298 41.2479 1.4389 37.0353 2.86777L37.0536 2.88605Z" fill="black"/>
</svg>
