<svg width="315" height="64" viewBox="0 0 315 64" fill="none" xmlns="http://www.w3.org/2000/svg">
<path fill-rule="evenodd" clip-rule="evenodd" d="M27.5208 21.3445C31.0701 7.13517 39.9524 0 54.1587 0C75.5032 0 78.1317 15.9779 88.7856 18.646C95.8903 20.4237 102.105 17.7312 107.432 10.657C103.882 24.8938 94.9999 31.9985 80.7967 31.9985C59.4522 31.9985 56.8237 16.0206 46.1698 13.3525C39.0651 11.5748 32.8508 14.2673 27.5238 21.3415L27.5208 21.3445ZM0.882812 53.343C4.4382 39.1336 13.3114 31.9985 27.5208 31.9985C48.8653 31.9985 51.4937 47.9764 62.1477 50.6444C69.2523 52.4221 75.4666 49.7297 80.7936 42.6555C77.2443 56.8648 68.362 64 54.1557 64C32.8112 64 30.1827 48.0221 19.5288 45.354C12.4241 43.5763 6.20979 46.2688 0.882812 53.343Z" fill="url(#paint0_linear_6_90)"/>
<path fill-rule="evenodd" clip-rule="evenodd" d="M126.825 24.6133H119.851V20.4359H138.665V24.6133H131.694V43.5612H126.825V24.6133ZM147.773 41.4237C147.127 42.1587 146.365 42.7821 145.516 43.2684C144.687 43.7441 143.611 43.9819 142.29 43.9819C141.562 43.9855 140.836 43.8869 140.134 43.6892C139.484 43.511 138.876 43.2029 138.348 42.7836C137.841 42.375 137.433 41.8536 137.134 41.2133C136.835 40.5729 136.677 39.8167 136.677 38.9263C136.677 37.7615 136.936 36.8102 137.457 36.0753C137.98 35.3375 138.683 34.7463 139.5 34.3586C140.342 33.947 141.287 33.6573 142.336 33.4835C143.385 33.3097 144.461 33.1999 145.535 33.1603L147.706 33.0627V32.2211C147.706 31.1844 147.422 30.4709 146.846 30.0867C146.269 29.7025 145.596 29.5073 144.821 29.5073C143.022 29.5073 141.998 30.1873 141.741 31.5503L137.594 31.163C137.893 29.3945 138.674 28.1138 139.927 27.321C141.18 26.5282 142.87 26.1379 144.989 26.1379C146.285 26.1379 147.389 26.2904 148.297 26.6075C149.206 26.9246 149.938 27.3698 150.487 27.9492C151.049 28.5517 151.461 29.279 151.688 30.0714C151.938 30.9008 152.06 31.84 152.06 32.8767V43.5642H147.773V41.4298V41.4237ZM147.675 36.0143L145.663 36.1119C144.711 36.1516 143.943 36.2522 143.361 36.4046C142.778 36.5571 142.324 36.7462 142.019 36.9718C141.714 37.1974 141.491 37.4597 141.388 37.7646C141.279 38.0888 141.224 38.4288 141.226 38.7708C141.226 39.3319 141.421 39.7771 141.805 40.0972C142.19 40.4174 142.735 40.5851 143.422 40.5851C144.592 40.5851 145.544 40.3168 146.276 39.774C146.687 39.4691 147.026 39.0849 147.282 38.6245C147.538 38.164 147.669 37.5816 147.669 36.8925V36.0174L147.675 36.0143ZM155.743 26.6533H160.287V43.5581H155.743V26.6533ZM155.682 20.4329H160.348V24.5127H155.682V20.4329ZM164.171 20.4329H168.715V43.5581H164.171V20.4329ZM170.749 26.6533H175.676L178.045 37.8591L181.284 26.8149H185.242L188.291 37.8927L190.66 26.6868H195.395L190.465 43.5916H186.053L183.034 32.4498L179.985 43.5916H175.673L170.746 26.6868L170.749 26.6533ZM197.46 26.6533H202.003V43.5581H197.46V26.6533ZM197.399 20.4329H202.064V24.5127H197.399V20.4329ZM205.857 26.6533H210.269V28.9859C210.94 27.9949 211.733 27.2692 212.648 26.8149C213.537 26.3675 214.519 26.1346 215.514 26.1349C217.441 26.1349 218.868 26.638 219.798 27.6412C220.728 28.6444 221.195 30.2269 221.195 32.3858V43.5581H216.655V33.0048C216.655 31.7851 216.429 31.0075 215.972 30.5745C215.514 30.1416 214.913 29.9281 214.157 29.9281C213.578 29.9281 213.072 30.0196 212.648 30.1873C212.224 30.355 211.831 30.6081 211.465 30.9313C211.152 31.2478 210.894 31.6147 210.702 32.0168C210.498 32.4462 210.394 32.9164 210.398 33.392V43.5612H205.824V26.6563L205.857 26.6533ZM236.593 41.3261C236.024 42.1942 235.243 42.9028 234.324 43.3846C233.404 43.8664 232.377 44.1056 231.34 44.0795C228.961 44.0795 227.193 43.2806 226.019 41.6828C224.845 40.0851 224.268 37.8713 224.268 35.0447C224.255 33.8227 224.426 32.6056 224.775 31.4344C225.11 30.3428 225.589 29.4036 226.217 28.6169C226.834 27.8383 227.621 27.2123 228.519 26.7874C229.434 26.3605 230.455 26.141 231.599 26.141C232.44 26.141 233.276 26.2934 234.108 26.5984C234.941 26.9033 235.724 27.5131 236.462 28.3486V20.445H241.006V43.5703H236.596V41.3352L236.593 41.3261ZM236.496 34.9136C236.496 33.8342 236.404 32.9712 236.191 32.3217C235.977 31.6723 235.709 31.1478 235.3 30.7362C234.941 30.383 234.502 30.1215 234.02 29.9738C233.572 29.8549 233.108 29.797 232.645 29.797C232.159 29.7948 231.678 29.8945 231.233 30.0897C230.788 30.2849 230.403 30.5867 230.065 30.9953C229.727 31.4039 229.464 31.9467 229.272 32.6114C229.08 33.2761 228.979 34.075 228.979 35.0081C228.979 36.0204 229.071 36.8681 229.284 37.5511C229.498 38.2342 229.72 38.783 230.047 39.2038C230.373 39.6246 230.748 39.9265 231.181 40.1094C231.614 40.2924 232.081 40.4144 232.578 40.4144C233.657 40.4144 234.544 40.1003 235.236 39.4752C235.673 39.0337 236 38.4958 236.191 37.9049C236.392 37.2889 236.496 36.4961 236.496 35.5265V34.9471V34.9136ZM271.995 35.56C271.885 36.7919 271.598 37.9293 271.135 38.9751C270.685 39.9999 270.035 40.9246 269.223 41.695C268.363 42.4932 267.346 43.1047 266.238 43.491C265.061 43.9179 263.695 44.1375 262.137 44.1375C260.386 44.1375 258.844 43.8447 257.514 43.2623C256.226 42.7105 255.084 41.8683 254.175 40.8016C253.276 39.7435 252.602 38.4629 252.147 36.9596C251.693 35.4563 251.467 33.8006 251.467 31.9894C251.467 30.1111 251.711 28.4279 252.211 26.9368C252.712 25.4458 253.425 24.1742 254.352 23.1162C255.277 22.0604 256.43 21.2293 257.724 20.6859C259.042 20.1249 260.539 19.8444 262.207 19.8444C263.677 19.8444 264.96 20.0273 266.049 20.3932C267.137 20.7591 268.061 21.2897 268.808 21.9788C269.555 22.6679 270.15 23.5034 270.607 24.4731C271.083 25.5159 271.422 26.6167 271.611 27.7449L266.808 28.3608C266.57 27.0009 266.107 25.9306 265.436 25.153C264.765 24.3755 263.673 23.9882 262.204 23.9882C260.344 23.9882 258.932 24.6835 257.974 26.077C257.017 27.4704 256.526 29.4372 256.526 31.9863C256.526 34.5568 257.044 36.5602 258.069 37.914C258.533 38.5747 259.153 39.11 259.875 39.4719C260.597 39.8338 261.397 40.0109 262.204 39.9875C263.698 39.9875 264.796 39.6033 265.497 38.8379C266.198 38.0726 266.634 36.9779 266.808 35.5509L271.995 35.56ZM279.06 36.0174C279.167 37.4414 279.627 38.4781 280.432 39.1276C281.237 39.7771 282.435 40.1033 284.015 40.1033C284.771 40.1033 285.411 40.021 285.93 39.8594C286.448 39.6978 286.869 39.4813 287.195 39.213C287.506 38.9612 287.746 38.6321 287.89 38.2586C288.034 37.8757 288.106 37.4693 288.101 37.0602C288.101 36.4504 287.878 35.8863 287.424 35.3588C286.969 34.8312 286.137 34.444 284.923 34.2092L281.905 33.6603C280.685 33.4469 279.667 33.1633 278.758 32.8188C277.849 32.4742 277.087 32.026 276.471 31.4771C275.851 30.9207 275.368 30.2275 275.062 29.4524C274.739 28.6535 274.574 27.7022 274.574 26.6014C274.554 25.59 274.783 24.5891 275.239 23.6864C275.68 22.8486 276.313 22.1275 277.087 21.5824C277.88 21.0214 278.825 20.5945 279.923 20.3017C281.02 20.009 282.24 19.8657 283.557 19.8657C285.244 19.8657 286.649 20.0608 287.774 20.445C288.9 20.8292 289.808 21.3446 290.5 21.9849C291.193 22.6252 291.705 23.3571 292.04 24.2047C292.376 25.0524 292.598 25.9214 292.711 26.8271L288.137 27.4064C287.899 26.1318 287.442 25.211 286.765 24.653C286.088 24.095 285.052 23.8114 283.667 23.8114C282.844 23.8114 282.173 23.8815 281.639 24.0248C281.106 24.1681 280.682 24.348 280.359 24.5737C280.061 24.7684 279.824 25.0432 279.676 25.3665C279.548 25.6714 279.481 25.9824 279.481 26.3056C279.481 27.1686 279.725 27.8181 280.212 28.248C280.7 28.6779 281.524 29.0164 282.691 29.2542L285.869 29.8702C288.378 30.3672 290.217 31.1722 291.388 32.2791C292.559 33.3859 293.138 35.0234 293.138 37.0877C293.148 38.0522 292.955 39.0081 292.571 39.893C292.183 40.7557 291.606 41.5197 290.882 42.128C290.058 42.8089 289.104 43.3161 288.079 43.6191C286.957 43.9759 285.64 44.1527 284.122 44.1527C280.963 44.1527 278.548 43.4819 276.874 42.128C275.2 40.7742 274.294 38.7739 274.129 36.0235H279.026L279.06 36.0174ZM300.099 36.0174C300.206 37.4414 300.667 38.4781 301.472 39.1276C302.277 39.7771 303.484 40.1033 305.054 40.1033C305.703 40.1176 306.351 40.0354 306.975 39.8594C307.5 39.6978 307.915 39.4813 308.241 39.213C308.552 38.9612 308.792 38.6321 308.936 38.2586C309.08 37.8757 309.151 37.4693 309.146 37.0602C309.137 36.4286 308.895 35.8227 308.466 35.3588C308.009 34.8312 307.18 34.444 305.966 34.2092L302.947 33.6603C301.728 33.4469 300.709 33.1633 299.801 32.8188C298.892 32.4742 298.13 32.026 297.514 31.4771C296.898 30.9283 296.428 30.2513 296.102 29.4524C295.776 28.6535 295.614 27.7022 295.614 26.6014C295.594 25.59 295.822 24.5891 296.279 23.6864C296.726 22.8451 297.358 22.1155 298.127 21.5519C298.913 20.9634 299.865 20.564 300.962 20.2712C302.06 19.9785 303.28 19.8352 304.597 19.8352C306.283 19.8352 307.689 20.0304 308.814 20.4146C309.939 20.7988 310.845 21.3141 311.54 21.9544C312.218 22.5657 312.745 23.3254 313.08 24.1742C313.413 25.0167 313.638 25.8978 313.751 26.7966L309.177 27.3759C308.939 26.1013 308.482 25.1805 307.805 24.6225C307.128 24.0645 306.091 23.7809 304.707 23.7809C303.883 23.7809 303.213 23.851 302.679 23.9943C302.145 24.1376 301.722 24.3176 301.398 24.5432C301.101 24.7379 300.864 25.0127 300.715 25.336C300.586 25.6323 300.52 25.952 300.52 26.2751C300.52 27.1381 300.764 27.7876 301.252 28.2175C301.74 28.6474 302.563 28.9859 303.734 29.2237L306.942 29.8641C309.451 30.3611 311.29 31.1661 312.461 32.273C313.632 33.3798 314.211 35.0173 314.211 37.0816C314.222 38.0452 314.029 39.0002 313.644 39.8838C313.257 40.747 312.68 41.5113 311.955 42.1189C311.211 42.7592 310.278 43.2532 309.149 43.613C308.021 43.9728 306.71 44.1466 305.195 44.1466C302.036 44.1466 299.621 43.4758 297.944 42.1219C296.267 40.7681 295.364 38.7678 295.236 36.0174H300.099Z" fill="#24292E"/>
<defs>
<linearGradient id="paint0_linear_6_90" x1="0.882828" y1="-5688.96" x2="4149.36" y2="13495.9" gradientUnits="userSpaceOnUse">
<stop stop-color="#2383AE"/>
<stop offset="1" stop-color="#6DD7B9"/>
</linearGradient>
</defs>
</svg>
