<svg width="214" height="64" viewBox="0 0 214 64" fill="none" xmlns="http://www.w3.org/2000/svg">
<path d="M58.9999 0.0507936H73.8519L36.9453 64L0.0284424 0.0507936H14.7992L21.0773 10.941C26.2109 19.8332 31.341 28.7153 36.4678 37.5873C36.8335 38.2171 36.9961 38.3187 37.4024 37.5873C39.8811 33.2394 42.4005 28.9219 44.8996 24.5841C48.3468 18.6176 51.7838 12.6544 55.2107 6.6946C56.45 4.51048 57.8723 2.34667 58.9999 0.0507936Z" fill="#4DB987"/>
<path d="M58.9999 0.0507936C57.8723 2.34667 56.45 4.51048 55.2107 6.72508C51.7838 12.6984 48.3468 18.6616 44.8996 24.6146C42.4005 28.9524 39.8811 33.2698 37.4024 37.6178C36.9961 38.3289 36.8335 38.2273 36.4678 37.6178C31.3478 28.7187 26.221 19.8265 21.0875 10.941L14.7992 0.0507936C19.1878 -4.96627e-08 23.5764 0 28.0056 0C28.5542 0 28.6862 0.345397 28.8792 0.680635C31.4189 5.06921 33.9484 9.47132 36.4678 13.887C36.6202 14.1511 36.7827 14.4051 36.9961 14.7606L38.9262 11.4489L45.0621 0.680635C45.2551 0.335238 45.4075 0 45.9459 0C50.2938 0 54.6452 0.0169312 58.9999 0.0507936Z" fill="#435466"/>
<path d="M92.1681 41.3968C94.1999 34.3568 96.2316 27.7537 98.1313 21.1403C99.7025 15.7901 101.284 10.4364 102.875 5.07937C103.394 3.33206 104.298 2.75302 105.74 3.18984C107.772 3.81968 108.361 4.73397 107.772 6.59302C103.708 19.8874 99.645 33.1886 95.5815 46.4965C95.4345 47.2744 95.0087 47.972 94.384 48.4583C93.7593 48.9446 92.9786 49.1862 92.1884 49.1378C91.4025 49.2396 90.607 49.0423 89.9597 48.5851C89.3124 48.1278 88.8606 47.444 88.6938 46.6692C84.5084 33.1242 80.3264 19.5793 76.1478 6.03429C75.7618 4.75429 76.3916 3.92127 78.1796 3.38286C79.9675 2.84444 80.7802 3.28127 81.2272 4.73397C82.243 8.03556 83.198 11.3575 84.1834 14.6692C86.6892 23.1754 89.2119 31.6851 91.7516 40.1981C91.8227 40.4521 91.9243 40.706 92.1681 41.3968Z" fill="#435466"/>
<path d="M154.228 35.3422C152.003 35.3422 149.768 35.4032 147.543 35.3422C146.527 35.3422 146.426 35.647 146.375 36.541C146.081 42.301 150.581 45.1962 156.321 44.8305C158.115 44.637 159.839 44.0208 161.349 43.0324C162.842 42.1587 163.645 42.3111 164.397 43.4387C165.148 44.5663 165.057 45.5517 163.706 46.6083C160.77 48.894 157.306 49.4324 153.75 49.1683C148.884 48.8025 144.75 46.9841 142.342 42.3721C141.883 41.5446 141.57 40.6442 141.418 39.7105C140.876 36.0053 140.876 32.241 141.418 28.5359C142.342 22.9486 147.726 18.8038 153.608 18.8241C156.357 18.7866 159.033 19.7054 161.179 21.4232C163.325 23.141 164.807 25.5512 165.372 28.2413C165.514 29.0321 165.576 29.8354 165.555 30.6387C165.555 33.9302 164.082 35.3829 160.78 35.4743C159.693 35.4743 158.596 35.4743 157.509 35.4743C156.422 35.4743 155.325 35.4743 154.238 35.4743L154.228 35.3422ZM152.826 31.939V31.8679C154.858 31.8679 156.889 31.8679 158.921 31.8679C160.191 31.8679 160.679 31.1467 160.648 29.9479C160.654 28.8543 160.404 27.7745 159.917 26.7953C159.43 25.816 158.72 24.9647 157.844 24.3098C156.684 23.4262 155.285 22.9117 153.829 22.833C152.373 22.7543 150.927 23.1151 149.679 23.8686C148.43 24.6221 147.437 25.7334 146.828 27.0584C146.219 28.3834 146.022 29.8609 146.263 31.299C146.375 32.0508 146.822 31.9289 147.279 31.939C149.128 31.9492 150.977 31.939 152.826 31.939Z" fill="#435466"/>
<path d="M135.129 29.6127C135.129 32.0813 135.129 34.5498 135.129 37.0083C135.142 40.2764 133.855 43.4155 131.553 45.735C129.25 48.0545 126.121 49.3644 122.853 49.3765C119.584 49.3886 116.445 48.102 114.126 45.7996C111.806 43.4973 110.496 40.3678 110.484 37.0997C110.403 31.939 110.484 26.7683 110.484 21.6076C110.468 21.2747 110.522 20.942 110.643 20.6316C110.765 20.3211 110.951 20.0399 111.189 19.8066C111.427 19.5733 111.712 19.3932 112.025 19.2781C112.337 19.163 112.671 19.1156 113.004 19.139C113.347 19.1089 113.693 19.1516 114.018 19.2643C114.344 19.377 114.642 19.5572 114.894 19.7931C115.145 20.029 115.343 20.3153 115.476 20.6332C115.609 20.9511 115.674 21.2936 115.665 21.6381C115.665 26.7987 115.665 31.9695 115.665 37.1302C115.644 38.7802 116.178 40.3897 117.179 41.7009C118.181 43.0122 119.594 43.9496 121.192 44.3632C125.59 45.4806 129.928 41.8438 129.969 36.9676C129.969 31.8883 129.969 26.8089 129.969 21.7295C129.928 21.3765 129.968 21.0189 130.085 20.6832C130.202 20.3476 130.393 20.0426 130.644 19.7909C130.894 19.5391 131.199 19.3471 131.534 19.2289C131.869 19.1108 132.226 19.0697 132.58 19.1086C134.246 19.1086 135.129 20.0229 135.129 21.7702C135.14 24.381 135.14 27.0121 135.129 29.6127Z" fill="#435466"/>
<path d="M203.244 49.2292C200.257 49.0463 197.148 48.6908 194.578 46.6083C193.715 45.9073 192.983 45.1048 193.359 43.8248C193.867 42.1486 194.944 41.6914 196.315 42.7378C198.635 44.5031 201.546 45.3071 204.442 44.9829C207.074 44.7797 208.79 43.6521 209.126 41.8337C209.522 39.6597 208.435 37.8413 205.865 36.8152C203.589 35.9111 201.181 35.3016 198.906 34.4076C195.259 32.9651 193.634 30.3441 194.009 26.6667C194.071 25.2089 194.546 23.7987 195.379 22.6007C196.211 21.4027 197.368 20.4663 198.713 19.901C200.746 19.0327 202.946 18.6277 205.155 18.7156C207.364 18.8035 209.525 19.3819 211.482 20.4089C212.945 21.12 213.23 21.9429 212.732 23.1213C212.102 24.6248 211.208 25.0311 209.684 24.3302C207.738 23.3315 205.56 22.8687 203.376 22.9892C202.234 23.0404 201.13 23.4176 200.196 24.0762C199.628 24.4222 199.166 24.9191 198.864 25.5117C198.561 26.1042 198.429 26.7691 198.481 27.4324C198.534 28.0958 198.769 28.7315 199.162 29.2688C199.554 29.8062 200.088 30.2242 200.704 30.4762C202.858 31.6038 205.286 31.9695 207.551 32.7619C211.614 34.2146 213.86 36.9778 213.88 40.8889C213.926 42.5583 213.431 44.1978 212.467 45.5621C211.504 46.9264 210.125 47.9421 208.536 48.4571C206.831 49.0212 205.039 49.2825 203.244 49.2292Z" fill="#435466"/>
<path d="M187.498 37.5873C187.498 42.7479 187.498 47.9086 187.498 53.0692C187.484 55.3094 186.863 57.5038 185.7 59.4184C185.022 60.51 184.083 61.4152 182.967 62.052C181.851 62.6888 180.594 63.0371 179.31 63.0654C178.966 63.1354 178.612 63.1322 178.269 63.0562C177.927 62.9801 177.604 62.8329 177.323 62.624C177.041 62.4151 176.806 62.1493 176.634 61.8438C176.462 61.5383 176.356 61.2 176.323 60.8508C176.252 59.4794 177.115 58.6565 178.873 58.433C179.639 58.4044 180.371 58.1065 180.939 57.5919C181.508 57.0773 181.877 56.3787 181.981 55.6191C182.32 54.137 182.467 52.6178 182.418 51.0984V21.9733C182.418 20.0229 183.19 19.1695 184.948 19.139C186.705 19.1086 187.65 20.0229 187.65 21.9632C187.65 27.1746 187.65 32.386 187.65 37.5975L187.498 37.5873Z" fill="#435466"/>
<path d="M173.275 42.5854C174.135 42.5854 174.959 42.9268 175.567 43.5346C176.175 44.1423 176.516 44.9666 176.516 45.826C176.516 46.6855 176.175 47.5098 175.567 48.1175C174.959 48.7252 174.135 49.0667 173.275 49.0667C172.419 49.051 171.602 48.7031 170.998 48.0966C170.393 47.49 170.048 46.6722 170.035 45.8159C170.043 44.9598 170.387 44.1412 170.993 43.5368C171.6 42.9324 172.419 42.5907 173.275 42.5854Z" fill="#435466"/>
<path d="M184.938 5.14032C185.342 5.1254 185.745 5.19119 186.124 5.33385C186.503 5.4765 186.849 5.69317 187.144 5.97119C187.438 6.24922 187.673 6.58304 187.837 6.95318C188.001 7.32331 188.089 7.72234 188.097 8.12698C188.033 8.92377 187.672 9.66728 187.084 10.2095C186.497 10.7516 185.727 11.0527 184.928 11.0527C184.128 11.0527 183.358 10.7516 182.771 10.2095C182.183 9.66728 181.822 8.92377 181.758 8.12698C181.766 7.72056 181.855 7.3198 182.02 6.94828C182.185 6.57676 182.422 6.24199 182.719 5.96369C183.015 5.68539 183.364 5.46917 183.745 5.32777C184.126 5.18636 184.532 5.12263 184.938 5.14032Z" fill="#435466"/>
</svg>
