<svg width="168" height="64" viewBox="0 0 168 64" fill="none" xmlns="http://www.w3.org/2000/svg">
<path d="M22 64C15.9333 64 10.7507 61.9 6.452 57.7C2.15067 53.5 0 48.3667 0 42.3C0 37.1 1.56667 32.4667 4.7 28.4C7.83333 24.3333 11.9333 21.7333 17 20.6C18.6667 14.4667 22 9.5 27 5.7C32 1.9 37.6667 0 44 0C51.8 0 58.416 2.716 63.848 8.148C69.2827 13.5827 72 20.2 72 28C76.6 28.5333 80.4173 30.516 83.452 33.948C86.484 37.3827 88 41.4 88 46C88 51 86.2507 55.2507 82.752 58.752C79.2507 62.2507 75 64 70 64H22Z" fill="#3272B8"/>
<path d="M112.594 38L111.453 34.8281H107.086L105.969 38H104L108.273 26.5312H110.305L114.578 38H112.594ZM110.961 33.2188L109.891 30.1094C109.812 29.901 109.703 29.5729 109.562 29.125C109.427 28.6771 109.333 28.349 109.281 28.1406C109.141 28.7812 108.935 29.4818 108.664 30.2422L107.633 33.2188H110.961ZM123.648 30.0312C123.648 31.224 123.258 32.138 122.477 32.7734C121.695 33.4089 120.583 33.7266 119.141 33.7266H117.953V38H116.086V26.5781H119.375C120.802 26.5781 121.87 26.8698 122.578 27.4531C123.292 28.0365 123.648 28.8958 123.648 30.0312ZM117.953 32.1562H118.945C119.904 32.1562 120.607 31.9896 121.055 31.6562C121.503 31.3229 121.727 30.8021 121.727 30.0938C121.727 29.4375 121.526 28.9479 121.125 28.625C120.724 28.3021 120.099 28.1406 119.25 28.1406H117.953V32.1562ZM125.93 38V26.5781H127.797V38H125.93ZM136.844 31.8906H138.141C139.01 31.8906 139.641 31.7292 140.031 31.4062C140.422 31.0833 140.617 30.6042 140.617 29.9688C140.617 29.3229 140.406 28.8594 139.984 28.5781C139.562 28.2969 138.927 28.1562 138.078 28.1562H136.844V31.8906ZM136.844 33.4375V38H134.977V26.5781H138.203C139.677 26.5781 140.768 26.8542 141.477 27.4062C142.185 27.9583 142.539 28.7917 142.539 29.9062C142.539 31.3281 141.799 32.3411 140.32 32.9453L143.547 38H141.422L138.688 33.4375H136.844ZM148.789 38.1562C147.445 38.1562 146.393 37.7656 145.633 36.9844C144.878 36.1979 144.5 35.1172 144.5 33.7422C144.5 32.3307 144.852 31.2214 145.555 30.4141C146.258 29.6068 147.224 29.2031 148.453 29.2031C149.594 29.2031 150.495 29.5495 151.156 30.2422C151.818 30.9349 152.148 31.888 152.148 33.1016V34.0938H146.391C146.417 34.9323 146.643 35.5781 147.07 36.0312C147.497 36.4792 148.099 36.7031 148.875 36.7031C149.385 36.7031 149.859 36.6562 150.297 36.5625C150.74 36.4635 151.214 36.3021 151.719 36.0781V37.5703C151.271 37.7839 150.818 37.9349 150.359 38.0234C149.901 38.112 149.378 38.1562 148.789 38.1562ZM148.453 30.5938C147.87 30.5938 147.401 30.7786 147.047 31.1484C146.698 31.5182 146.49 32.0573 146.422 32.7656H150.344C150.333 32.0521 150.161 31.513 149.828 31.1484C149.495 30.7786 149.036 30.5938 148.453 30.5938ZM160.039 35.5391C160.039 36.3828 159.732 37.0312 159.117 37.4844C158.503 37.9323 157.622 38.1562 156.477 38.1562C155.326 38.1562 154.401 37.9818 153.703 37.6328V36.0469C154.719 36.5156 155.664 36.75 156.539 36.75C157.669 36.75 158.234 36.4089 158.234 35.7266C158.234 35.5078 158.172 35.3255 158.047 35.1797C157.922 35.0339 157.716 34.8828 157.43 34.7266C157.143 34.5703 156.745 34.3932 156.234 34.1953C155.24 33.8099 154.565 33.4245 154.211 33.0391C153.862 32.6536 153.688 32.1536 153.688 31.5391C153.688 30.7995 153.984 30.2266 154.578 29.8203C155.177 29.4089 155.99 29.2031 157.016 29.2031C158.031 29.2031 158.992 29.4089 159.898 29.8203L159.305 31.2031C158.372 30.8177 157.589 30.625 156.953 30.625C155.984 30.625 155.5 30.901 155.5 31.4531C155.5 31.724 155.625 31.9531 155.875 32.1406C156.13 32.3281 156.682 32.5859 157.531 32.9141C158.245 33.1901 158.763 33.4427 159.086 33.6719C159.409 33.901 159.648 34.1667 159.805 34.4688C159.961 34.7656 160.039 35.1224 160.039 35.5391ZM165.25 36.6719C165.698 36.6719 166.146 36.6016 166.594 36.4609V37.8438C166.391 37.9323 166.128 38.0052 165.805 38.0625C165.487 38.125 165.156 38.1562 164.812 38.1562C163.073 38.1562 162.203 37.2396 162.203 35.4062V30.75H161.023V29.9375L162.289 29.2656L162.914 27.4375H164.047V29.3594H166.508V30.75H164.047V35.375C164.047 35.8177 164.156 36.1458 164.375 36.3594C164.599 36.5677 164.891 36.6719 165.25 36.6719Z" fill="#141414"/>
</svg>
