<?xml version="1.0" encoding="UTF-8" standalone="no"?>
<svg
   width="235"
   height="64"
   viewBox="0 0 235 64"
   fill="none"
   version="1.1"
   id="svg359"
   sodipodi:docname="backend-developer.svg"
   inkscape:version="1.2.2 (b0a84865, 2022-12-01)"
   xmlns:inkscape="http://www.inkscape.org/namespaces/inkscape"
   xmlns:sodipodi="http://sodipodi.sourceforge.net/DTD/sodipodi-0.dtd"
   xmlns="http://www.w3.org/2000/svg"
   xmlns:svg="http://www.w3.org/2000/svg">
  <defs
     id="defs363" />
  <sodipodi:namedview
     id="namedview361"
     pagecolor="#ffffff"
     bordercolor="#000000"
     borderopacity="0.25"
     inkscape:showpageshadow="2"
     inkscape:pageopacity="0.0"
     inkscape:pagecheckerboard="0"
     inkscape:deskcolor="#d1d1d1"
     showgrid="false"
     inkscape:zoom="3.6875"
     inkscape:cx="103.72881"
     inkscape:cy="34.305085"
     inkscape:window-width="2011"
     inkscape:window-height="1101"
     inkscape:window-x="0"
     inkscape:window-y="25"
     inkscape:window-maximized="0"
     inkscape:current-layer="svg359" />
  <path
     fill-rule="evenodd"
     clip-rule="evenodd"
     d="M41.6 0C42.4487 0 43.2626 0.337142 43.8627 0.937258C44.4629 1.53737 44.8 2.35131 44.8 3.2V6.4H48C50.5461 6.4 52.9879 7.41143 54.7882 9.21178C56.5886 11.0121 57.6 13.4539 57.6 16V19.2H60.8C61.6487 19.2 62.4626 19.5371 63.0627 20.1373C63.6629 20.7374 64 21.5513 64 22.4C64 23.2487 63.6629 24.0626 63.0627 24.6627C62.4626 25.2629 61.6487 25.6 60.8 25.6H57.6V38.4H60.8C61.6487 38.4 62.4626 38.7371 63.0627 39.3373C63.6629 39.9374 64 40.7513 64 41.6C64 42.4487 63.6629 43.2626 63.0627 43.8627C62.4626 44.4629 61.6487 44.8 60.8 44.8H57.6V48C57.6 50.5461 56.5886 52.9879 54.7882 54.7882C52.9879 56.5886 50.5461 57.6 48 57.6H44.8V60.8C44.8 61.6487 44.4629 62.4626 43.8627 63.0627C43.2626 63.6629 42.4487 64 41.6 64C40.7513 64 39.9374 63.6629 39.3373 63.0627C38.7371 62.4626 38.4 61.6487 38.4 60.8V57.6H25.6V60.8C25.6 61.6487 25.2629 62.4626 24.6627 63.0627C24.0626 63.6629 23.2487 64 22.4 64C21.5513 64 20.7374 63.6629 20.1373 63.0627C19.5371 62.4626 19.2 61.6487 19.2 60.8V57.6H16C13.4539 57.6 11.0121 56.5886 9.21178 54.7882C7.41143 52.9879 6.4 50.5461 6.4 48V44.8H3.2C2.35131 44.8 1.53737 44.4629 0.937258 43.8627C0.337142 43.2626 0 42.4487 0 41.6C0 40.7513 0.337142 39.9374 0.937258 39.3373C1.53737 38.7371 2.35131 38.4 3.2 38.4H6.4V25.6H3.2C2.35131 25.6 1.53737 25.2629 0.937258 24.6627C0.337142 24.0626 0 23.2487 0 22.4C0 21.5513 0.337142 20.7374 0.937258 20.1373C1.53737 19.5371 2.35131 19.2 3.2 19.2H6.4V16C6.4 13.4539 7.41143 11.0121 9.21178 9.21178C11.0121 7.41143 13.4539 6.4 16 6.4H19.2V3.2C19.2 2.35131 19.5371 1.53737 20.1373 0.937258C20.7374 0.337142 21.5513 0 22.4 0C23.2487 0 24.0626 0.337142 24.6627 0.937258C25.2629 1.53737 25.6 2.35131 25.6 3.2V6.4H38.4V3.2C38.4 2.35131 38.7371 1.53737 39.3373 0.937258C39.9374 0.337142 40.7513 0 41.6 0ZM48 12.8H16C15.1513 12.8 14.3374 13.1371 13.7373 13.7373C13.1371 14.3374 12.8 15.1513 12.8 16V48C12.8 48.8487 13.1371 49.6626 13.7373 50.2627C14.3374 50.8629 15.1513 51.2 16 51.2H48C48.8487 51.2 49.6626 50.8629 50.2627 50.2627C50.8629 49.6626 51.2 48.8487 51.2 48V16C51.2 15.1513 50.8629 14.3374 50.2627 13.7373C49.6626 13.1371 48.8487 12.8 48 12.8ZM38.4 19.2C40.0146 19.1995 41.5698 19.8093 42.7538 20.9072C43.9377 22.0051 44.6629 23.5099 44.784 25.12L44.8 25.6V38.4C44.8005 40.0146 44.1907 41.5698 43.0928 42.7538C41.9949 43.9377 40.4901 44.6629 38.88 44.784L38.4 44.8H25.6C23.9854 44.8005 22.4302 44.1907 21.2462 43.0928C20.0623 41.9949 19.3371 40.4901 19.216 38.88L19.2 38.4V25.6C19.1995 23.9854 19.8093 22.4302 20.9072 21.2462C22.0051 20.0623 23.5099 19.3371 25.12 19.216L25.6 19.2H38.4ZM38.4 25.6H25.6V38.4H38.4V25.6Z"
     fill="#3272B8"
     id="path355"
     inkscape:export-filename="backend-developer.webp"
     inkscape:export-xdpi="96"
     inkscape:export-ydpi="96" />
  <path
     d="m 81.5078,26.5781 h 3.3906 c 1.573,0 2.7084,0.2292 3.4063,0.6875 0.7031,0.4584 1.0547,1.1823 1.0547,2.1719 0,0.6667 -0.1719,1.2214 -0.5156,1.6641 -0.3438,0.4427 -0.8386,0.7213 -1.4844,0.8359 v 0.0781 c 0.8021,0.1511 1.3906,0.4505 1.7656,0.8985 0.3802,0.4427 0.5703,1.0442 0.5703,1.8047 0,1.026 -0.3594,1.8307 -1.0781,2.414 C 87.9036,37.7109 86.9089,38 85.6328,38 h -4.125 z m 1.8672,4.7188 h 1.7969 c 0.7812,0 1.3515,-0.1224 1.7109,-0.3672 0.3594,-0.25 0.5391,-0.6719 0.5391,-1.2656 0,-0.5365 -0.1953,-0.9245 -0.586,-1.1641 -0.3854,-0.2396 -1,-0.3594 -1.8437,-0.3594 H 83.375 Z m 0,1.5156 v 3.6172 h 1.9844 c 0.7812,0 1.3698,-0.1485 1.7656,-0.4453 0.401,-0.3021 0.6016,-0.7761 0.6016,-1.4219 0,-0.5937 -0.2032,-1.0339 -0.6094,-1.3203 -0.4063,-0.2865 -1.0234,-0.4297 -1.8516,-0.4297 z M 97.2812,38 96.9141,36.7969 h -0.0625 c -0.4167,0.526 -0.836,0.8854 -1.2578,1.0781 -0.4219,0.1875 -0.9636,0.2812 -1.625,0.2812 -0.849,0 -1.5131,-0.2291 -1.9922,-0.6874 -0.474,-0.4584 -0.711,-1.1068 -0.711,-1.9454 0,-0.8906 0.3308,-1.5625 0.9922,-2.0156 0.6615,-0.4531 1.6693,-0.7005 3.0234,-0.7422 l 1.4922,-0.0468 v -0.461 c 0,-0.5521 -0.1302,-0.9635 -0.3906,-1.2344 -0.2552,-0.276 -0.6536,-0.414 -1.1953,-0.414 -0.4427,0 -0.8672,0.0651 -1.2734,0.1953 -0.4063,0.1302 -0.7969,0.2838 -1.1719,0.4609 l -0.5938,-1.3125 c 0.4688,-0.2448 0.9818,-0.4297 1.5391,-0.5547 0.5573,-0.1302 1.0833,-0.1953 1.5781,-0.1953 1.099,0 1.9271,0.2396 2.4844,0.7188 0.5625,0.4791 0.8438,1.2317 0.8438,2.2578 V 38 Z m -2.7343,-1.25 c 0.6666,0 1.2005,-0.1849 1.6015,-0.5547 0.4063,-0.375 0.6094,-0.8984 0.6094,-1.5703 v -0.75 l -1.1094,0.0469 c -0.8645,0.0312 -1.4948,0.1771 -1.8906,0.4375 -0.3906,0.2552 -0.5859,0.6484 -0.5859,1.1797 0,0.3854 0.1146,0.6849 0.3437,0.8984 0.2292,0.2083 0.5729,0.3125 1.0313,0.3125 z m 10.0941,1.4062 c -1.308,0 -2.302,-0.3802 -2.985,-1.1406 -0.677,-0.7656 -1.015,-1.862 -1.015,-3.289 0,-1.4532 0.354,-2.5704 1.062,-3.3516 0.714,-0.7812 1.742,-1.1719 3.086,-1.1719 0.912,0 1.732,0.1693 2.461,0.5078 l -0.555,1.4766 c -0.776,-0.3021 -1.416,-0.4531 -1.922,-0.4531 -1.494,0 -2.242,0.9922 -2.242,2.9765 0,0.9688 0.185,1.698 0.555,2.1875 0.375,0.4844 0.922,0.7266 1.641,0.7266 0.817,0 1.591,-0.2031 2.32,-0.6094 v 1.6016 c -0.328,0.1927 -0.68,0.3307 -1.055,0.414 -0.37,0.0834 -0.82,0.125 -1.351,0.125 z m 6.211,-4.7187 1.039,-1.2969 2.609,-2.7812 h 2.117 l -3.476,3.7109 3.695,4.9297 h -2.156 l -2.774,-3.7891 -1.008,0.8282 V 38 h -1.82 V 25.8438 h 1.82 v 5.9296 l -0.093,1.6641 z m 6.632,1.0547 v -1.5625 h 4.016 v 1.5625 z M 130.047,38 h -6.461 V 26.5781 h 6.461 v 1.5781 h -4.594 v 3.1094 h 4.305 v 1.5625 h -4.305 v 3.586 h 4.594 z m 9.883,0 h -1.844 v -5.3125 c 0,-0.6667 -0.135,-1.1641 -0.406,-1.4922 -0.266,-0.3281 -0.69,-0.4922 -1.274,-0.4922 -0.776,0 -1.344,0.2292 -1.703,0.6875 -0.359,0.4584 -0.539,1.2266 -0.539,2.3047 V 38 h -1.836 v -8.6406 h 1.438 l 0.257,1.1328 h 0.094 c 0.261,-0.4115 0.63,-0.7292 1.11,-0.9531 0.479,-0.224 1.01,-0.336 1.593,-0.336 2.073,0 3.11,1.0547 3.11,3.1641 z m 5.468,0.1562 c -1.078,0 -1.919,-0.3906 -2.523,-1.1718 -0.604,-0.7813 -0.906,-1.8776 -0.906,-3.2891 0,-1.4167 0.304,-2.5182 0.914,-3.3047 0.614,-0.7916 1.463,-1.1875 2.547,-1.1875 1.135,0 2,0.4193 2.593,1.2578 h 0.094 c -0.088,-0.6198 -0.133,-1.1093 -0.133,-1.4687 v -3.1484 h 1.844 V 38 h -1.437 l -0.321,-1.1328 h -0.086 c -0.588,0.8594 -1.45,1.289 -2.586,1.289 z m 0.493,-1.4843 c 0.755,0 1.304,-0.211 1.648,-0.6328 0.344,-0.4271 0.521,-1.1172 0.531,-2.0703 v -0.2579 c 0,-1.0885 -0.177,-1.8619 -0.531,-2.3203 -0.354,-0.4583 -0.909,-0.6875 -1.664,-0.6875 -0.646,0 -1.143,0.263 -1.492,0.7891 -0.349,0.5208 -0.524,1.2656 -0.524,2.2344 0,0.9583 0.17,1.6901 0.508,2.1953 0.339,0.5 0.847,0.75 1.524,0.75 z"
     fill="#141414"
     id="path357"
     sodipodi:nodetypes="cscsccccscscccscscsccccscscscccccscscccscsccccscsccscscccscsscscsccsscscccsccccccccccccccccccccccccccccccccccccscscscccccccsscscscsccsccccccssccscscscs" />
</svg>
