<svg viewBox="0 0 16 16" fill="none" xmlns="http://www.w3.org/2000/svg">
    <path
        d="M8 0C6.41775 0 4.87103 0.469192 3.55544 1.34824C2.23985 2.22729 1.21447 3.47672 0.608967 4.93853C0.00346629 6.40034 -0.15496 8.00887 0.153721 9.56072C0.462403 11.1126 1.22433 12.538 2.34315 13.6569C3.46197 14.7757 4.88743 15.5376 6.43928 15.8463C7.99113 16.155 9.59966 15.9965 11.0615 15.391C12.5233 14.7855 13.7727 13.7602 14.6518 12.4446C15.5308 11.129 16 9.58225 16 8C15.9976 5.87899 15.154 3.84553 13.6543 2.34574C12.1545 0.845963 10.121 0.00235276 8 0ZM8 14.2222C6.76936 14.2222 5.56636 13.8573 4.54312 13.1736C3.51988 12.4899 2.72236 11.5181 2.25142 10.3811C1.78047 9.24418 1.65725 7.9931 1.89734 6.7861C2.13743 5.57911 2.73003 4.47042 3.60023 3.60022C4.47042 2.73003 5.57911 2.13742 6.78611 1.89734C7.9931 1.65725 9.24418 1.78047 10.3811 2.25142C11.5181 2.72236 12.4899 3.51988 13.1736 4.54312C13.8573 5.56636 14.2222 6.76936 14.2222 8C14.2205 9.64969 13.5643 11.2313 12.3978 12.3978C11.2313 13.5643 9.6497 14.2205 8 14.2222ZM7.11111 8.2963V4.44444C7.11111 4.2087 7.20476 3.9826 7.37146 3.8159C7.53816 3.64921 7.76425 3.55555 8 3.55555C8.23575 3.55555 8.46184 3.64921 8.62854 3.8159C8.79524 3.9826 8.88889 4.2087 8.88889 4.44444V8.2963C8.88889 8.53204 8.79524 8.75813 8.62854 8.92483C8.46184 9.09153 8.23575 9.18518 8 9.18518C7.76425 9.18518 7.53816 9.09153 7.37146 8.92483C7.20476 8.75813 7.11111 8.53204 7.11111 8.2963ZM9.18519 11.2593C9.18519 11.4937 9.11568 11.7228 8.98545 11.9177C8.85522 12.1126 8.67012 12.2645 8.45355 12.3542C8.23699 12.4439 7.99869 12.4674 7.76878 12.4217C7.53888 12.3759 7.3277 12.2631 7.16195 12.0973C6.9962 11.9316 6.88332 11.7204 6.83759 11.4905C6.79186 11.2606 6.81533 11.0223 6.90503 10.8057C6.99474 10.5891 7.14665 10.404 7.34155 10.2738C7.53645 10.1436 7.76559 10.0741 8 10.0741C8.31433 10.0741 8.61579 10.1989 8.83805 10.4212C9.06032 10.6435 9.18519 10.9449 9.18519 11.2593Z"
        fill="#B72020" />
</svg>
