<svg viewBox="0 0 256 256" xmlns="http://www.w3.org/2000/svg">
    <g transform="matrix(1.0681614,0,0,1.0739636,-14.012468,-3.4085756)" style="fill:#6b21a8;fill-opacity:1">
        <g style="fill:#6b21a8;fill-opacity:1" />
        <path
            d="m 244.17345,81.565127 c 0,-51.605803 -33.82517,-66.737134 -33.82517,-66.737134 -33.19335,-15.2375175 -121.347963,-15.0782453 -154.22278,0 0,0 -33.830471,15.131331 -33.830471,66.737134 0,61.427903 -3.504098,137.721673 56.081501,153.490113 21.507725,5.68088 39.9892,6.902 54.86038,6.05253 26.97624,-1.48659 42.11289,-9.60972 42.11289,-9.60972 l -0.90258,-19.59109 c 0,0 -19.27785,6.05253 -40.94485,5.36233 -21.45464,-0.7433 -44.066694,-2.33608 -47.586722,-28.66989 a 54.440939,54.440939 0 0 1 -0.477835,-7.37984 c 45.463037,11.0963 84.231087,4.8314 94.902667,3.55719 29.79543,-3.55719 55.74701,-21.92718 59.05465,-38.70436 5.20306,-26.44001 4.77832,-64.507263 4.77832,-64.507263 z m -39.883,66.471673 H 179.53347 V 87.405291 c 0,-26.386919 -33.97913,-27.395671 -33.97913,3.663376 v 33.182743 h -24.5977 V 91.063357 c 0,-31.059047 -33.979144,-30.050296 -33.979144,-3.663375 V 148.0315 H 62.167418 c 0,-64.825815 -2.760803,-78.523658 9.774308,-92.911689 C 85.692658,39.77611 114.32009,38.76735 127.06757,58.358442 l 6.15872,10.353018 6.15872,-10.353018 c 12.80057,-19.697277 41.47577,-18.476148 55.12581,-3.238631 12.58822,14.494217 9.76901,28.138962 9.76901,92.911689 z"
            style="fill:#6b21a8;fill-opacity:1;stroke-width:0.530924" />
    </g>
</svg>
