<svg viewBox="0 0 65 65" fill="none" xmlns="http://www.w3.org/2000/svg">
            <path
                d="M32.2261 0C14.5546 0 0.226074 14.3286 0.226074 32C0.226074 49.6714 14.5546 64 32.2261 64C49.8975 64 64.2261 49.6714 64.2261 32C64.2261 14.3286 49.8975 0 32.2261 0ZM47.6046 24.1214C47.6261 24.4571 47.6261 24.8071 47.6261 25.15C47.6261 35.6357 39.6404 47.7143 25.0475 47.7143C20.5475 47.7143 16.3761 46.4071 12.8618 44.1571C13.5046 44.2286 14.1189 44.2571 14.7761 44.2571C18.4904 44.2571 21.9046 43 24.6261 40.8714C21.1404 40.8 18.2118 38.5143 17.2118 35.3714C18.4332 35.55 19.5332 35.55 20.7904 35.2286C18.9955 34.8639 17.3823 33.8892 16.2248 32.4699C15.0672 31.0506 14.4367 29.2743 14.4404 27.4429V27.3429C15.4904 27.9357 16.7261 28.3 18.0189 28.35C16.9321 27.6257 16.0408 26.6444 15.424 25.4931C14.8072 24.3418 14.4841 23.0561 14.4832 21.75C14.4832 20.2714 14.8689 18.9214 15.5618 17.75C17.554 20.2024 20.0399 22.2082 22.858 23.6369C25.6761 25.0656 28.7633 25.8854 31.9189 26.0429C30.7975 20.65 34.8261 16.2857 39.6689 16.2857C41.9546 16.2857 44.0118 17.2429 45.4618 18.7857C47.2546 18.45 48.9689 17.7786 50.4975 16.8786C49.9046 18.7143 48.6618 20.2643 47.0118 21.2429C48.6118 21.0714 50.1546 20.6286 51.5832 20.0071C50.5046 21.5929 49.1546 23 47.6046 24.1214Z"
                fill="#00ACEE" />
        </svg>
