<?xml version="1.0" encoding="UTF-8" standalone="no"?>
<svg
   id="Layer_1"
   data-name="Layer 1"
   viewBox="0 0 250 250"
   version="1.1"
   sodipodi:docname="chip.svg"
   width="250"
   height="250"
   inkscape:version="1.3.2 (091e20e, 2023-11-25)"
   xmlns:inkscape="http://www.inkscape.org/namespaces/inkscape"
   xmlns:sodipodi="http://sodipodi.sourceforge.net/DTD/sodipodi-0.dtd"
   xmlns="http://www.w3.org/2000/svg"
   xmlns:svg="http://www.w3.org/2000/svg"
   xmlns:rdf="http://www.w3.org/1999/02/22-rdf-syntax-ns#"
   xmlns:cc="http://creativecommons.org/ns#"
   xmlns:dc="http://purl.org/dc/elements/1.1/">
  <defs
     id="defs1" />
  <sodipodi:namedview
     id="namedview1"
     pagecolor="#ffffff"
     bordercolor="#000000"
     borderopacity="0.25"
     inkscape:showpageshadow="2"
     inkscape:pageopacity="0.0"
     inkscape:pagecheckerboard="0"
     inkscape:deskcolor="#d1d1d1"
     showguides="true"
     inkscape:zoom="3.4766083"
     inkscape:cx="124.97813"
     inkscape:cy="129.4365"
     inkscape:window-width="2560"
     inkscape:window-height="1359"
     inkscape:window-x="0"
     inkscape:window-y="25"
     inkscape:window-maximized="1"
     inkscape:current-layer="Layer_1">
    <sodipodi:guide
       position="0,125"
       orientation="-1,0"
       id="guide1"
       inkscape:locked="false"
       inkscape:label=""
       inkscape:color="rgb(0,134,229)" />
    <sodipodi:guide
       position="250,125"
       orientation="0,1"
       id="guide2"
       inkscape:locked="false"
       inkscape:label=""
       inkscape:color="rgb(0,134,229)" />
    <sodipodi:guide
       position="125,250"
       orientation="0,1"
       id="guide3"
       inkscape:locked="false"
       inkscape:label=""
       inkscape:color="rgb(0,134,229)" />
    <sodipodi:guide
       position="125,0"
       orientation="0,1"
       id="guide4"
       inkscape:locked="false"
       inkscape:label=""
       inkscape:color="rgb(0,134,229)" />
    <sodipodi:guide
       position="125,125"
       orientation="0,1"
       id="guide5"
       inkscape:locked="false"
       inkscape:label=""
       inkscape:color="rgb(0,134,229)" />
    <sodipodi:guide
       position="125,125"
       orientation="-1,0"
       id="guide6"
       inkscape:locked="false"
       inkscape:label=""
       inkscape:color="rgb(0,134,229)" />
    <sodipodi:guide
       position="0,125"
       orientation="-1,0"
       id="guide7"
       inkscape:locked="false"
       inkscape:label=""
       inkscape:color="rgb(0,134,229)" />
    <sodipodi:guide
       position="125,125"
       orientation="0.70710678,-0.70710678"
       id="guide8"
       inkscape:locked="false"
       inkscape:label=""
       inkscape:color="rgb(0,134,229)" />
    <sodipodi:guide
       position="125,125"
       orientation="-0.70710678,-0.70710678"
       id="guide9"
       inkscape:label=""
       inkscape:locked="false"
       inkscape:color="rgb(0,134,229)" />
  </sodipodi:namedview>
  <title
     id="title1">Artboard 1</title>
  <metadata
     id="metadata1">
    <rdf:RDF>
      <cc:Work
         rdf:about="">
        <dc:title>Artboard 1</dc:title>
      </cc:Work>
    </rdf:RDF>
  </metadata>
  <path
     fill-rule="evenodd"
     clip-rule="evenodd"
     d="m 162.5,0 c 3.31524,0 6.49453,1.3169615 8.83867,3.6611634 2.34453,2.3441877 3.66131,5.523642 3.66131,8.8388366 V 25 h 12.5 c 9.94572,0 19.484,3.950899 26.51642,10.983516 C 221.04923,43.016015 225,52.554296 225,62.499993 v 12.500002 h 12.5 c 3.31523,0 6.49453,1.316799 8.83867,3.661326 2.34454,2.344148 3.66133,5.52344 3.66133,8.838675 0,3.315234 -1.31679,6.494541 -3.66133,8.838672 -2.34414,2.344533 -5.52344,3.66133 -8.83867,3.66133 H 225 V 150 h 12.5 c 3.31523,0 6.49453,1.3168 8.83867,3.66133 2.34454,2.34414 3.66133,5.52344 3.66133,8.83867 0,3.31524 -1.31679,6.49453 -3.66133,8.83867 -2.34414,2.34453 -5.52344,3.66131 -8.83867,3.66131 H 225 v 12.5 c 0,9.94572 -3.95077,19.484 -10.9836,26.51642 C 206.98398,221.04923 197.4457,225 187.49998,225 h -12.5 v 12.5 c 0,3.31523 -1.31678,6.49453 -3.66131,8.83867 C 168.99453,248.68321 165.81524,250 162.5,250 c -3.31523,0 -6.49453,-1.31679 -8.83867,-3.66133 C 151.3168,243.99453 150,240.81523 150,237.5 V 225 H 99.999996 v 12.5 c 0,3.31523 -1.316795,6.49453 -3.661325,8.83867 C 93.994531,248.68321 90.815233,250 87.499999,250 c -3.315235,0 -6.494531,-1.31679 -8.838673,-3.66133 -2.34453,-2.34414 -3.661327,-5.52344 -3.661327,-8.83867 V 225 h -12.5 C 52.554296,225 43.016015,221.04923 35.983516,214.0164 28.950899,206.98398 25,197.4457 25,187.49998 v -12.5 H 12.5 c -3.3151948,0 -6.4946489,-1.31678 -8.8388366,-3.66131 C 1.3169615,168.99453 0,165.81524 0,162.5 0,159.18477 1.3169615,156.00547 3.6611634,153.66133 6.0053511,151.3168 9.1848052,150 12.5,150 H 25 V 99.999998 H 12.5 c -3.3151948,0 -6.4946489,-1.316797 -8.8388366,-3.66133 C 1.3169615,93.994537 0,90.81523 0,87.499996 0,84.184761 1.3169615,81.005469 3.6611634,78.661321 6.0053511,76.316794 9.1848052,74.999995 12.5,74.999995 H 25 V 62.499993 C 25,52.554296 28.950899,43.016015 35.983516,35.983516 43.016015,28.950899 52.554296,25 62.499999,25 h 12.5 V 12.5 c 0,-3.3151946 1.316797,-6.4946489 3.661327,-8.8388366 C 81.005468,1.3169615 84.184764,0 87.499999,0 c 3.315234,0 6.494532,1.3169615 8.838672,3.6611634 2.34453,2.3441877 3.661325,5.523642 3.661325,8.8388366 V 25 H 150 V 12.5 c 0,-3.3151946 1.3168,-6.4946489 3.66133,-8.8388366 C 156.00547,1.3169615 159.18477,0 162.5,0 Z m 24.99998,50 H 62.499999 c -3.315235,0 -6.494531,1.316796 -8.838672,3.661327 C 51.316796,56.005468 50,59.184759 50,62.499993 V 187.49998 c 0,3.31525 1.316796,6.49455 3.661327,8.83869 C 56.005468,198.6832 59.184764,200 62.499999,200 H 187.49998 c 3.31525,0 6.49455,-1.3168 8.83869,-3.66133 C 198.6832,193.99453 200,190.81523 200,187.49998 V 62.499993 c 0,-3.315234 -1.3168,-6.494525 -3.66133,-8.838666 C 193.99453,51.316796 190.81523,50 187.49998,50 Z M 150,74.999995 c 6.30704,-0.0014 12.38203,2.380077 17.00703,6.66876 4.62461,4.288669 7.45743,10.166794 7.93047,16.456245 l 0.0624,1.874998 V 150 c 0.001,6.30704 -2.38007,12.38203 -6.66874,17.00703 -4.28862,4.62461 -10.16674,7.45743 -16.45619,7.93047 l -1.875,0.0624 H 99.99999 c -6.307032,0.001 -12.382033,-2.38007 -17.007032,-6.66874 C 78.368379,164.04257 75.535566,158.16445 75.06252,151.875 L 75.000015,150 V 99.999998 c -0.0019,-6.307032 2.380078,-12.382032 6.668752,-17.007033 4.288671,-4.624608 10.166796,-7.457415 16.456249,-7.930463 l 1.875004,-0.06243 z m 0,25.000003 H 99.999996 V 150 H 150 Z"
     fill="#3272b8"
     id="path355"
     inkscape:export-filename="backend-developer.webp"
     inkscape:export-xdpi="96"
     inkscape:export-ydpi="96"
     style="stroke-width:3.90625" />
</svg>
