<?xml version="1.0" encoding="UTF-8" standalone="no"?>
<svg
   id="Layer_1"
   data-name="Layer 1"
   viewBox="0 0 250 250"
   version="1.1"
   sodipodi:docname="cloud.svg"
   width="250"
   height="250"
   inkscape:version="1.3.2 (091e20e, 2023-11-25)"
   xmlns:inkscape="http://www.inkscape.org/namespaces/inkscape"
   xmlns:sodipodi="http://sodipodi.sourceforge.net/DTD/sodipodi-0.dtd"
   xmlns="http://www.w3.org/2000/svg"
   xmlns:svg="http://www.w3.org/2000/svg"
   xmlns:rdf="http://www.w3.org/1999/02/22-rdf-syntax-ns#"
   xmlns:cc="http://creativecommons.org/ns#"
   xmlns:dc="http://purl.org/dc/elements/1.1/">
  <defs
     id="defs1" />
  <sodipodi:namedview
     id="namedview1"
     pagecolor="#ffffff"
     bordercolor="#000000"
     borderopacity="0.25"
     inkscape:showpageshadow="2"
     inkscape:pageopacity="0.0"
     inkscape:pagecheckerboard="0"
     inkscape:deskcolor="#d1d1d1"
     showguides="true"
     inkscape:zoom="2.4583333"
     inkscape:cx="137.28814"
     inkscape:cy="148.47458"
     inkscape:window-width="2560"
     inkscape:window-height="1387"
     inkscape:window-x="0"
     inkscape:window-y="25"
     inkscape:window-maximized="1"
     inkscape:current-layer="Layer_1">
    <sodipodi:guide
       position="0,215.4836"
       orientation="1,0"
       id="guide1"
       inkscape:locked="false" />
    <sodipodi:guide
       position="250,210.59378"
       orientation="1,0"
       id="guide2"
       inkscape:locked="false" />
  </sodipodi:namedview>
  <title
     id="title1">Artboard 1</title>
  <g
     id="Templates"
     transform="matrix(15.538797,0,0,15.538797,-61.906386,-56.925441)">
    <path
       d="m 17,10.57 a 3,3 0 0 1 1.18,0.23 3.11,3.11 0 0 1 1,0.64 2.82,2.82 0 0 1 0.65,1 3,3 0 0 1 -1.6,3.95 3.08,3.08 0 0 1 -1.16,0.23 H 8 A 4,4 0 0 1 6.44,16.31 4,4 0 0 1 6.44,8.93 4,4 0 0 1 8,8.57 3.54,3.54 0 0 1 8.73,8.64 4.63,4.63 0 0 1 9.45,7.77 a 4.72,4.72 0 0 1 0.89,-0.65 4.58,4.58 0 0 1 1,-0.41 4.79,4.79 0 0 1 1.13,-0.14 4.37,4.37 0 0 1 1.64,0.3 4.55,4.55 0 0 1 1.36,0.84 4.39,4.39 0 0 1 1,1.27 4.66,4.66 0 0 1 0.53,1.59 z"
       style="fill:#0078d7"
       id="path1" />
  </g>
  <metadata
     id="metadata1">
    <rdf:RDF>
      <cc:Work
         rdf:about="">
        <dc:title>Artboard 1</dc:title>
      </cc:Work>
    </rdf:RDF>
  </metadata>
</svg>
