<?xml version="1.0" encoding="UTF-8" standalone="no"?>
<!-- Created with Inkscape (http://www.inkscape.org/) -->

<svg
   width="99.236443"
   height="99.236435"
   viewBox="0 0 26.256308 26.256305"
   version="1.1"
   id="svg5"
   xml:space="preserve"
   inkscape:version="1.2.2 (b0a84865, 2022-12-01)"
   sodipodi:docname="earth-web-developer.svg"
   inkscape:export-filename="earth-web-developer.webp"
   inkscape:export-xdpi="96"
   inkscape:export-ydpi="96"
   xmlns:inkscape="http://www.inkscape.org/namespaces/inkscape"
   xmlns:sodipodi="http://sodipodi.sourceforge.net/DTD/sodipodi-0.dtd"
   xmlns="http://www.w3.org/2000/svg"
   xmlns:svg="http://www.w3.org/2000/svg"><sodipodi:namedview
     id="namedview7"
     pagecolor="#ffffff"
     bordercolor="#000000"
     borderopacity="0.25"
     inkscape:showpageshadow="2"
     inkscape:pageopacity="0.0"
     inkscape:pagecheckerboard="0"
     inkscape:deskcolor="#d1d1d1"
     inkscape:document-units="mm"
     showgrid="false"
     inkscape:zoom="5.6568543"
     inkscape:cx="67.528697"
     inkscape:cy="63.904775"
     inkscape:window-width="2560"
     inkscape:window-height="1387"
     inkscape:window-x="0"
     inkscape:window-y="25"
     inkscape:window-maximized="1"
     inkscape:current-layer="layer1"
     showguides="true"
     inkscape:lockguides="false"><sodipodi:guide
       position="-0.37341438,13.23261"
       orientation="0,-1"
       id="guide5544"
       inkscape:locked="false" /></sodipodi:namedview><defs
     id="defs2" /><g
     inkscape:label="Capa 1"
     inkscape:groupmode="layer"
     id="layer1"
     transform="translate(-0.10883107,-0.17239785)"><g
       id="g188"
       transform="matrix(0.21875647,0,0,0.21875647,-0.20341281,-0.13984604)"><path
         class="st1"
         d="m 61.44,1.4273584 c 33.141747,0 60.01264,26.8708946 60.01264,60.0126416 0,33.141747 -26.870893,60.01264 -60.01264,60.01264 C 28.298253,121.45264 1.4273584,94.581747 1.4273584,61.44 1.4273584,28.298253 28.298253,1.4273584 61.44,1.4273584 Z"
         id="path184"
         style="fill:#3272b8;fill-opacity:1;stroke-width:0.976768" /><path
         class="st0"
         d="M 10.773101,93.630405 C 7.0400226,87.968912 4.3284117,81.964783 3.0028747,75.163219 l 11.1257943,4.97395 0.06187,3.330896 c 0,1.227172 -2.0831,3.825891 -2.753404,4.815878 z M 79.766928,4.1659122 C 101.03104,11.229888 117.74493,29.457854 120.81802,52.248199 l -2.77156,0.272433 c -0.36094,1.546856 -0.69093,1.577793 -0.69093,3.434021 0,1.639667 2.06247,2.732778 2.06247,6.187424 0,0.928113 -2.17591,2.774028 -2.26872,3.104024 l -3.22778,-3.784642 v 4.815879 l -0.48467,-0.02062 -0.86625,-8.889266 -1.80466,0.567181 -2.14497,-6.610231 -7.06398,7.38366 -0.0825,5.403683 -2.309977,1.546855 -2.454344,-13.859829 -1.464357,1.072487 -3.320584,-4.485883 -4.960252,0.144373 -1.897477,-2.17591 -1.949039,0.536243 -3.82589,-4.382759 -0.742491,0.505307 2.371846,6.063675 h 2.753404 v -1.371545 h 1.371546 c 0.989987,2.743091 2.062474,1.113736 2.062474,2.753404 0,5.723366 -7.063976,9.930815 -11.694232,11.003301 0.247498,1.031238 0.154686,2.062475 1.371546,2.062475 2.588406,0 1.299359,-0.453743 4.124949,-0.690928 -0.13406,5.847115 -6.703042,12.828592 -9.508008,17.170101 l 1.258109,8.961453 c 0.329996,1.949039 -4.04245,4.001202 -5.527432,6.197737 l 0.711554,3.43402 -2.010913,0.814678 c -0.35062,3.52683 -3.41646,6.53117 -7.240516,6.94623 l -4.505277,0.48899 c 0,-4.8262 -3.444333,-11.725167 -3.444333,-15.138563 0,-2.897777 1.371546,-3.289648 1.371546,-6.878353 0,-3.320585 -3.434021,-8.074589 -3.434021,-8.940828 v -5.506808 h -2.753403 c -0.412496,-1.536544 -0.154686,-2.062475 -2.062475,-2.062475 h -0.690929 c -3.000901,0 -2.495595,1.371546 -5.506807,1.371546 h -2.753404 c -2.485283,0 -6.878353,-7.961153 -6.878353,-8.940828 V 52.50001 c 0,-3.557768 3.258709,-7.435221 5.506807,-8.940827 v -3.434025 l 3.093712,-3.145273 1.722166,-0.288747 c 3.69183,0 3.248398,-2.062475 5.506808,-2.062475 h 6.187424 v 4.815879 l 6.806167,2.908089 0.639367,-2.939026 c 3.0834,0.721866 3.887765,2.093412 7.682718,2.093412 h 1.371546 c 2.60903,0 2.753404,-3.464958 2.753404,-6.187424 l -5.506808,0.546555 -2.402783,-5.218061 -2.382158,0.629056 c 0.43312,1.866539 0.659991,1.093111 0.659991,2.670904 0,0.928114 -0.763115,1.031238 -1.381857,1.371546 l -2.382161,-6.043051 -5.12525,-3.660893 -0.680616,0.670304 4.362134,4.589007 c -0.577493,1.649979 -0.64968,6.403984 -3.052462,3.073087 l 2.248097,-1.082799 -5.609932,-5.878053 -3.361834,1.309671 -3.320584,3.176211 c -0.35062,2.55747 -1.04155,3.846516 -3.722767,3.846516 -1.78404,0 -0.711554,-0.464057 -3.444332,-0.69093 V 27.75031 h 6.187424 l -2.010913,-4.578693 -0.742491,0.453744 v -1.381858 l 10.054565,-4.630256 c -0.185623,-1.443732 -0.422807,-0.670304 -0.422807,-2.248097 0,-0.09281 0.670303,-1.361234 0.690928,-1.381858 l 2.598719,1.619043 -0.618743,-2.959651 -4.011514,0.824989 -0.742491,-3.599018 C 48.262625,8.19805 55.264727,2.2993725 57.4922,2.2993725 h 2.062475 c 2.17591,0 7.992089,2.1449737 8.940828,3.4340204 l -5.51712,-0.5568682 4.094012,3.3721458 0.39187,-1.4437319 3.052463,-0.8353023 0.04125,-1.9077891 h 1.381858 v 2.0624747 z"
         id="path186"
         style="fill:#e29244;fill-opacity:1;stroke-width:1.03124"
         sodipodi:nodetypes="cccccccccssccccccccccccccccccccccscsccccccscsssccssssssccccsccccssccccsccccccccccscccccccscccccssccccccccc" /></g></g></svg>
