<?xml version="1.0" encoding="UTF-8"?><svg id="b" xmlns="http://www.w3.org/2000/svg" viewBox="0 0 200 200"><g id="c"><circle cx="100" cy="100" r="100" fill="#00af41" stroke-width="0"/><g id="d"><path d="m103.45332,84.54441c2.47282.96738,4.84628,1.89352,7.21598,2.82715,11.75105,4.62693,23.49835,9.26136,35.25878,13.86767.68242.26622.93176.5718.92988,1.33483-.02625,19.0889-.02062,38.17966-.02062,57.26857v1.06299c-.4087.01874-.71241.04499-1.018.04499-13.77767.00188-27.55723-.00563-41.3349.01874-.84552,0-1.10236-.20435-1.10236-1.08175.02437-24.77506.01875-49.55201.02062-74.32708,0-.29996.02625-.59993.04687-1.01612h.00375Z" fill="#fff" stroke-width="0"/><path d="m53.20951,39.03064h43.33153c.01875.30934.04874.58118.04874.85302.00562,1.03112,0,2.06225.00187,3.09149.015,18.05215.02437,36.1043.06749,54.15645.00187.88114-.25872,1.28797-1.08737,1.6123-13.76081,5.38434-27.50661,10.80617-41.25616,16.21863-.33746.13311-.68429.24185-1.10799.38995V39.03064h.00188Z" fill="#fff" stroke-width="0"/><path d="m96.56542,160.95061h-42.17292c-.82115,0-1.23235-.39807-1.2336-1.19423,0-11.99664.0075-23.99329-.01687-35.98994,0-.75928.19685-1.13423.94488-1.4267,13.90516-5.44995,27.79532-10.93365,41.69111-16.40797.22497-.08811.46307-.14811.78553-.24747v55.26632h.00187Z" fill="#fff" stroke-width="0"/><path d="m103.40457,39.03252h43.3784v55.21194c-.44432-.15373-.8699-.28309-1.28234-.4462-13.71768-5.40496-27.4335-10.82117-41.16055-16.20175-.74803-.29246-.95238-.65617-.95051-1.4192.0225-12.02477.01687-24.04766.01687-36.07243v-1.07237h-.00188Z" fill="#fff" stroke-width="0"/></g></g></svg>