<?xml version="1.0" encoding="UTF-8" standalone="no"?>
<svg
   class="social-icon-card fill-red-500"
   viewBox="0 0 640 512"
   version="1.1"
   id="svg1"
   sodipodi:docname="packagist.svg"
   inkscape:version="1.3.2 (091e20e, 2023-11-25)"
   xmlns:inkscape="http://www.inkscape.org/namespaces/inkscape"
   xmlns:sodipodi="http://sodipodi.sourceforge.net/DTD/sodipodi-0.dtd"
   xmlns="http://www.w3.org/2000/svg"
   xmlns:svg="http://www.w3.org/2000/svg">
  <defs
     id="defs1" />
  <sodipodi:namedview
     id="namedview1"
     pagecolor="#ffffff"
     bordercolor="#000000"
     borderopacity="0.25"
     inkscape:showpageshadow="2"
     inkscape:pageopacity="0.0"
     inkscape:pagecheckerboard="0"
     inkscape:deskcolor="#d1d1d1"
     inkscape:zoom="0.6109375"
     inkscape:cx="320"
     inkscape:cy="256.16368"
     inkscape:window-width="1392"
     inkscape:window-height="1184"
     inkscape:window-x="3409"
     inkscape:window-y="77"
     inkscape:window-maximized="0"
     inkscape:current-layer="svg1" />
  <path
     d="M256 48c0-26.5 21.5-48 48-48H592c26.5 0 48 21.5 48 48V464c0 26.5-21.5 48-48 48H381.3c1.8-5 2.7-10.4 2.7-16V253.3c18.6-6.6 32-24.4 32-45.3V176c0-26.5-21.5-48-48-48H256V48zM571.3 347.3c6.2-6.2 6.2-16.4 0-22.6l-64-64c-6.2-6.2-16.4-6.2-22.6 0l-64 64c-6.2 6.2-6.2 16.4 0 22.6s16.4 6.2 22.6 0L480 310.6V432c0 8.8 7.2 16 16 16s16-7.2 16-16V310.6l36.7 36.7c6.2 6.2 16.4 6.2 22.6 0zM0 176c0-8.8 7.2-16 16-16H368c8.8 0 16 7.2 16 16v32c0 8.8-7.2 16-16 16H16c-8.8 0-16-7.2-16-16V176zm352 80V480c0 17.7-14.3 32-32 32H64c-17.7 0-32-14.3-32-32V256H352zM144 320c-8.8 0-16 7.2-16 16s7.2 16 16 16h96c8.8 0 16-7.2 16-16s-7.2-16-16-16H144z"
     id="path1"
     style="fill:#ef4444;fill-opacity:1" />
</svg>
